<?xml version="1.0" encoding="UTF-8" standalone="no"?>
<svg
   xmlns:osb="http://www.openswatchbook.org/uri/2009/osb"
   xmlns:dc="http://purl.org/dc/elements/1.1/"
   xmlns:cc="http://creativecommons.org/ns#"
   xmlns:rdf="http://www.w3.org/1999/02/22-rdf-syntax-ns#"
   xmlns:svg="http://www.w3.org/2000/svg"
   xmlns="http://www.w3.org/2000/svg"
   xmlns:sodipodi="http://sodipodi.sourceforge.net/DTD/sodipodi-0.dtd"
   xmlns:inkscape="http://www.inkscape.org/namespaces/inkscape"
   version="1.1"
   id="Layer_1"
   x="0px"
   y="0px"
   viewBox="0 0 553.38001 59.384788"
   xml:space="preserve"
   sodipodi:docname="Electrical and Computer Engineering_centered.svg"
   width="553.38"
   height="59.384789"
   inkscape:version="1.0.2 (e86c8708, 2021-01-15)"><metadata
   id="metadata374"><rdf:RDF><cc:Work
       rdf:about=""><dc:format>image/svg+xml</dc:format><dc:type
         rdf:resource="http://purl.org/dc/dcmitype/StillImage" /><dc:title></dc:title></cc:Work></rdf:RDF></metadata><defs
   id="defs372"><linearGradient
     id="linearGradient1211"
     osb:paint="solid"><stop
       style="stop-color:#000000;stop-opacity:1;"
       offset="0"
       id="stop1209" /></linearGradient></defs><sodipodi:namedview
   pagecolor="#969696"
   bordercolor="#666666"
   borderopacity="1"
   objecttolerance="10"
   gridtolerance="10"
   guidetolerance="10"
   inkscape:pageopacity="0.50196078"
   inkscape:pageshadow="2"
   inkscape:window-width="2560"
   inkscape:window-height="1387"
   id="namedview370"
   showgrid="false"
   fit-margin-top="3"
   fit-margin-left="0"
   fit-margin-right="0"
   fit-margin-bottom="0"
   inkscape:pagecheckerboard="true"
   inkscape:zoom="2.0486215"
   inkscape:cx="142.60146"
   inkscape:cy="69.412125"
   inkscape:window-x="0"
   inkscape:window-y="25"
   inkscape:window-maximized="1"
   inkscape:current-layer="Layer_1" />
<style
   type="text/css"
   id="style239">
	.st0{fill:#221F1F;}
	.st1{fill:#124734;}
	.st2{fill:none;stroke:#124734;stroke-width:1.3;stroke-miterlimit:10;}
</style>
<g
   id="g355"
   transform="translate(-126.79,-264.94)">
	<g
   id="g353">
		<path
   class="st0"
   d="m 129.77,277.1 c 0,-4.44 0,-5.24 -0.06,-6.15 -0.06,-0.97 -0.28,-1.42 -1.22,-1.62 -0.23,-0.06 -0.71,-0.08 -0.97,-0.08 -0.11,0 -0.23,-0.06 -0.23,-0.17 0,-0.17 0.14,-0.23 0.46,-0.23 0.66,0 1.42,0 2.05,0.03 l 1.17,0.06 c 0.2,0 5.87,0 6.52,-0.03 0.54,-0.03 1,-0.09 1.22,-0.14 0.14,-0.03 0.26,-0.14 0.4,-0.14 0.09,0 0.11,0.11 0.11,0.26 0,0.2 -0.14,0.54 -0.23,1.34 -0.03,0.28 -0.09,1.54 -0.14,1.88 -0.03,0.14 -0.09,0.31 -0.2,0.31 -0.17,0 -0.23,-0.14 -0.23,-0.37 0,-0.2 -0.03,-0.68 -0.17,-1.03 -0.2,-0.46 -0.48,-0.8 -2.02,-0.97 -0.48,-0.06 -3.59,-0.09 -3.9,-0.09 -0.11,0 -0.17,0.09 -0.17,0.29 v 7.86 c 0,0.2 0.03,0.29 0.17,0.29 0.37,0 3.87,0 4.53,-0.06 0.68,-0.06 1.08,-0.11 1.34,-0.4 0.2,-0.23 0.31,-0.37 0.43,-0.37 0.09,0 0.14,0.06 0.14,0.23 0,0.17 -0.14,0.66 -0.23,1.59 -0.06,0.57 -0.11,1.62 -0.11,1.82 0,0.23 0,0.54 -0.2,0.54 -0.14,0 -0.2,-0.11 -0.2,-0.26 0,-0.29 0,-0.57 -0.11,-0.94 -0.11,-0.4 -0.37,-0.88 -1.48,-1 -0.77,-0.08 -3.59,-0.14 -4.07,-0.14 -0.14,0 -0.2,0.09 -0.2,0.2 v 2.51 c 0,0.97 -0.03,4.27 0,4.87 0.09,1.96 0.51,2.33 3.3,2.33 0.74,0 1.99,0 2.73,-0.31 0.74,-0.31 1.08,-0.88 1.28,-2.05 0.06,-0.31 0.11,-0.43 0.26,-0.43 0.17,0 0.17,0.23 0.17,0.43 0,0.23 -0.23,2.16 -0.37,2.76 -0.2,0.74 -0.43,0.74 -1.54,0.74 -2.14,0 -3.7,-0.06 -4.81,-0.09 -1.11,-0.06 -1.79,-0.08 -2.22,-0.08 -0.06,0 -0.54,0 -1.14,0.03 -0.57,0 -1.22,0.06 -1.65,0.06 -0.31,0 -0.46,-0.06 -0.46,-0.23 0,-0.08 0.06,-0.17 0.23,-0.17 0.26,0 0.6,-0.06 0.85,-0.11 0.57,-0.11 0.71,-0.74 0.83,-1.57 0.14,-1.2 0.14,-3.45 0.14,-6.18 z"
   id="path241"
   style="fill:#000000;stroke:#ffffff;stroke-opacity:1;paint-order:stroke markers fill" />
		<path
   class="st0"
   d="m 148.22,283.39 c 0,3.56 0.06,5.01 0.51,5.44 0.4,0.4 1.37,0.57 3.33,0.57 1.31,0 2.42,-0.03 3.02,-0.74 0.31,-0.37 0.51,-0.88 0.6,-1.37 0.03,-0.17 0.11,-0.31 0.26,-0.31 0.11,0 0.17,0.11 0.17,0.37 0,0.26 -0.17,1.71 -0.37,2.42 -0.17,0.57 -0.26,0.66 -1.59,0.66 -1.79,0 -3.19,-0.03 -4.36,-0.09 -1.14,-0.03 -1.99,-0.06 -2.73,-0.06 -0.11,0 -0.54,0 -1.03,0.03 -0.51,0.03 -1.05,0.06 -1.45,0.06 -0.26,0 -0.4,-0.06 -0.4,-0.2 0,-0.08 0.06,-0.2 0.2,-0.2 0.23,0 0.54,-0.06 0.77,-0.11 0.48,-0.11 0.54,-0.57 0.65,-1.28 0.14,-1 0.14,-2.9 0.14,-5.24 v -4.27 c 0,-3.76 0,-4.44 -0.06,-5.21 -0.06,-0.83 -0.2,-1.22 -1.02,-1.34 -0.2,-0.03 -0.63,-0.06 -0.85,-0.06 -0.09,0 -0.2,-0.11 -0.2,-0.2 0,-0.14 0.11,-0.2 0.4,-0.2 1.14,0 2.71,0.06 2.85,0.06 0.11,0 1.99,-0.06 2.76,-0.06 0.26,0 0.4,0.06 0.4,0.2 0,0.09 -0.11,0.17 -0.2,0.17 -0.17,0 -0.54,0.03 -0.83,0.06 -0.74,0.14 -0.88,0.51 -0.94,1.37 -0.03,0.77 -0.03,1.45 -0.03,5.21 z"
   id="path243"
   style="fill:#000000;stroke:#ffffff;stroke-opacity:1;paint-order:stroke markers fill" />
		<path
   class="st0"
   d="m 160.26,279.06 c 0,-3.76 0,-4.44 -0.06,-5.21 -0.06,-0.83 -0.2,-1.22 -1.02,-1.34 -0.2,-0.03 -0.63,-0.06 -0.85,-0.06 -0.09,0 -0.2,-0.11 -0.2,-0.2 0,-0.14 0.11,-0.2 0.4,-0.2 1.14,0 2.76,0.06 2.9,0.06 0.17,0 5.41,0.03 5.98,0 0.48,-0.03 0.94,-0.11 1.14,-0.14 0.11,-0.03 0.23,-0.11 0.34,-0.11 0.09,0 0.11,0.11 0.11,0.23 0,0.17 -0.14,0.46 -0.2,1.14 -0.03,0.23 -0.09,1.31 -0.14,1.59 -0.03,0.11 -0.11,0.26 -0.23,0.26 -0.14,0 -0.2,-0.11 -0.2,-0.31 0,-0.17 -0.03,-0.57 -0.14,-0.85 -0.17,-0.4 -0.43,-0.57 -1.79,-0.74 -0.43,-0.06 -3.33,-0.08 -3.62,-0.08 -0.11,0 -0.14,0.08 -0.14,0.26 v 6.58 c 0,0.17 0,0.26 0.14,0.26 0.31,0 3.62,0 4.19,-0.06 0.6,-0.06 0.97,-0.08 1.22,-0.34 0.17,-0.17 0.29,-0.31 0.37,-0.31 0.09,0 0.14,0.06 0.14,0.2 0,0.14 -0.14,0.54 -0.2,1.34 -0.06,0.48 -0.11,1.4 -0.11,1.57 0,0.2 -0.06,0.46 -0.23,0.46 -0.11,0 -0.17,-0.08 -0.17,-0.23 0,-0.23 0,-0.48 -0.11,-0.8 -0.09,-0.34 -0.31,-0.63 -1.28,-0.74 -0.68,-0.08 -3.36,-0.11 -3.79,-0.11 -0.14,0 -0.17,0.08 -0.17,0.17 v 2.02 c 0,0.83 -0.03,3.64 0,4.13 0.06,1.62 0.51,1.94 2.99,1.94 0.65,0 1.85,0 2.51,-0.26 0.65,-0.29 1,-0.71 1.14,-1.68 0.06,-0.29 0.11,-0.37 0.26,-0.37 0.14,0 0.17,0.2 0.17,0.37 0,0.17 -0.2,1.82 -0.34,2.33 -0.17,0.63 -0.43,0.63 -1.4,0.63 -1.88,0 -3.33,-0.06 -4.36,-0.09 -1.05,-0.06 -1.71,-0.06 -2.08,-0.06 -0.06,0 -0.54,0 -1.08,0.03 -0.48,0.03 -1.05,0.06 -1.45,0.06 -0.26,0 -0.4,-0.06 -0.4,-0.2 0,-0.08 0.06,-0.2 0.2,-0.2 0.23,0 0.54,-0.08 0.77,-0.11 0.48,-0.09 0.54,-0.57 0.65,-1.28 0.14,-1 0.14,-2.9 0.14,-5.24 z"
   id="path245"
   style="fill:#000000;stroke:#ffffff;stroke-opacity:1;paint-order:stroke markers fill" />
		<path
   class="st0"
   d="m 175.61,288.09 c -2.45,-2.11 -3.05,-4.87 -3.05,-7.17 0,-1.62 0.6,-4.44 2.82,-6.61 1.51,-1.45 3.79,-2.59 7.63,-2.59 1,0 2.42,0.09 3.64,0.29 0.94,0.17 1.74,0.34 2.56,0.37 0.26,0 0.31,0.11 0.31,0.26 0,0.2 -0.06,0.48 -0.11,1.37 -0.03,0.8 -0.03,2.13 -0.06,2.48 -0.03,0.37 -0.14,0.51 -0.29,0.51 -0.17,0 -0.2,-0.17 -0.2,-0.51 0,-0.94 -0.4,-1.91 -1.05,-2.42 -0.88,-0.74 -2.71,-1.34 -4.93,-1.34 -3.22,0 -4.76,0.85 -5.64,1.68 -1.85,1.71 -2.25,3.87 -2.25,6.32 0,4.64 3.67,8.77 9.03,8.77 1.88,0 3.13,-0.14 4.13,-1.14 0.54,-0.54 0.88,-1.57 0.97,-2.02 0.06,-0.26 0.09,-0.34 0.26,-0.34 0.11,0 0.23,0.17 0.23,0.34 0,0.17 -0.34,2.28 -0.6,3.1 -0.14,0.46 -0.2,0.54 -0.63,0.71 -1.02,0.4 -2.9,0.54 -4.53,0.54 -3.74,-0.01 -6.28,-0.89 -8.24,-2.6 z"
   id="path247"
   style="fill:#000000;stroke:#ffffff;stroke-opacity:1;paint-order:stroke markers fill" />
		<path
   class="st0"
   d="m 200.35,283.33 c 0,2.33 0,4.24 0.11,5.24 0.09,0.71 0.2,1.17 0.97,1.28 0.34,0.06 0.91,0.11 1.14,0.11 0.17,0 0.2,0.11 0.2,0.2 0,0.11 -0.11,0.2 -0.4,0.2 -1.37,0 -2.96,-0.08 -3.1,-0.08 -0.11,0 -1.85,0.08 -2.59,0.08 -0.28,0 -0.4,-0.06 -0.4,-0.2 0,-0.08 0.06,-0.17 0.2,-0.17 0.23,0 0.51,-0.06 0.74,-0.11 0.51,-0.11 0.65,-0.6 0.74,-1.31 0.11,-1 0.11,-2.9 0.11,-5.24 v -10.17 l -3.62,0.06 c -1.57,0.03 -2.16,0.2 -2.53,0.77 -0.28,0.43 -0.31,0.6 -0.4,0.77 -0.06,0.2 -0.14,0.23 -0.26,0.23 -0.06,0 -0.17,-0.06 -0.17,-0.2 0,-0.26 0.48,-2.42 0.54,-2.62 0.03,-0.14 0.17,-0.46 0.26,-0.46 0.17,0 0.43,0.2 1.11,0.29 0.71,0.08 1.68,0.11 1.96,0.11 h 9.45 c 0.83,0 1.4,-0.06 1.79,-0.11 0.37,-0.06 0.6,-0.11 0.71,-0.11 0.11,0 0.11,0.14 0.11,0.29 0,0.74 -0.09,2.48 -0.09,2.76 0,0.2 -0.11,0.31 -0.23,0.31 -0.11,0 -0.17,-0.08 -0.2,-0.43 l -0.03,-0.26 c -0.09,-0.74 -0.63,-1.28 -3.02,-1.34 l -3.13,-0.06 v 10.17 z"
   id="path249"
   style="fill:#000000;stroke:#ffffff;stroke-opacity:1;paint-order:stroke markers fill" />
		<path
   class="st0"
   d="m 211.71,279.06 c 0,-3.76 0,-4.44 -0.06,-5.21 -0.06,-0.83 -0.2,-1.22 -1.02,-1.34 -0.2,-0.03 -0.63,-0.06 -0.85,-0.06 -0.09,0 -0.2,-0.11 -0.2,-0.2 0,-0.14 0.11,-0.2 0.4,-0.2 1.14,0 2.82,0.06 2.96,0.06 0.26,0 2.36,-0.06 3.13,-0.06 1.59,0 3.36,0.14 4.67,1.05 0.63,0.46 1.74,1.62 1.74,3.3 0,1.79 -0.74,3.53 -3.08,5.52 2.05,2.56 3.79,4.75 5.24,6.26 1.34,1.37 2.16,1.59 2.79,1.68 0.48,0.08 0.74,0.08 0.88,0.08 0.14,0 0.23,0.11 0.23,0.2 0,0.14 -0.14,0.2 -0.6,0.2 h -1.57 c -1.42,0 -2.05,-0.14 -2.68,-0.48 -1.08,-0.57 -1.99,-1.74 -3.42,-3.56 -1.05,-1.31 -2.16,-2.88 -2.71,-3.53 -0.11,-0.11 -0.17,-0.14 -0.34,-0.14 l -3.19,-0.06 c -0.11,0 -0.17,0.06 -0.17,0.2 v 0.57 c 0,2.33 0,4.21 0.11,5.21 0.09,0.71 0.23,1.17 1,1.28 0.34,0.06 0.88,0.11 1.11,0.11 0.17,0 0.2,0.11 0.2,0.2 0,0.11 -0.11,0.2 -0.4,0.2 -1.37,0 -2.96,-0.08 -3.07,-0.08 -0.03,0 -1.71,0.08 -2.48,0.08 -0.26,0 -0.4,-0.06 -0.4,-0.2 0,-0.08 0.06,-0.2 0.2,-0.2 0.23,0 0.54,-0.06 0.77,-0.11 0.48,-0.11 0.54,-0.57 0.65,-1.28 0.14,-1 0.14,-2.9 0.14,-5.24 v -4.25 z m 2.17,2.05 c 0,0.14 0.06,0.23 0.17,0.31 0.37,0.2 1.65,0.37 2.76,0.37 0.6,0 1.28,-0.03 1.88,-0.43 0.85,-0.57 1.51,-1.85 1.51,-3.7 0,-3.02 -1.65,-4.75 -4.33,-4.75 -0.74,0 -1.54,0.08 -1.79,0.14 -0.11,0.06 -0.2,0.14 -0.2,0.29 z"
   id="path251"
   style="fill:#000000;stroke:#ffffff;stroke-opacity:1;paint-order:stroke markers fill" />
		<path
   class="st0"
   d="m 232.59,283.33 c 0,2.33 0,4.24 0.11,5.24 0.09,0.71 0.17,1.17 0.91,1.28 0.37,0.06 0.91,0.11 1.14,0.11 0.14,0 0.2,0.11 0.2,0.2 0,0.11 -0.11,0.2 -0.4,0.2 -1.4,0 -3.02,-0.08 -3.13,-0.08 -0.14,0 -1.71,0.08 -2.48,0.08 -0.26,0 -0.4,-0.06 -0.4,-0.2 0,-0.08 0.06,-0.2 0.2,-0.2 0.23,0 0.54,-0.06 0.77,-0.11 0.48,-0.11 0.57,-0.57 0.65,-1.28 0.11,-1 0.14,-2.9 0.14,-5.24 v -4.27 c 0,-3.76 0,-4.44 -0.06,-5.21 -0.06,-0.83 -0.26,-1.2 -0.8,-1.31 -0.28,-0.06 -0.6,-0.09 -0.77,-0.09 -0.11,0 -0.2,-0.11 -0.2,-0.2 0,-0.14 0.11,-0.2 0.4,-0.2 0.83,0 2.39,0.06 2.53,0.06 0.11,0 1.74,-0.06 2.51,-0.06 0.28,0 0.4,0.06 0.4,0.2 0,0.09 -0.11,0.2 -0.2,0.2 -0.17,0 -0.34,0 -0.63,0.06 -0.68,0.14 -0.83,0.48 -0.88,1.34 -0.03,0.77 -0.03,1.45 -0.03,5.21 v 4.27 z"
   id="path253"
   style="fill:#000000;stroke:#ffffff;stroke-opacity:1;paint-order:stroke markers fill" />
		<path
   class="st0"
   d="m 240.3,288.09 c -2.45,-2.11 -3.05,-4.87 -3.05,-7.17 0,-1.62 0.6,-4.44 2.82,-6.61 1.51,-1.45 3.79,-2.59 7.63,-2.59 1,0 2.42,0.09 3.64,0.29 0.94,0.17 1.74,0.34 2.56,0.37 0.26,0 0.31,0.11 0.31,0.26 0,0.2 -0.06,0.48 -0.11,1.37 -0.03,0.8 -0.03,2.13 -0.06,2.48 -0.03,0.37 -0.14,0.51 -0.29,0.51 -0.17,0 -0.2,-0.17 -0.2,-0.51 0,-0.94 -0.4,-1.91 -1.05,-2.42 -0.88,-0.74 -2.71,-1.34 -4.93,-1.34 -3.22,0 -4.76,0.85 -5.64,1.68 -1.85,1.71 -2.25,3.87 -2.25,6.32 0,4.64 3.67,8.77 9.03,8.77 1.88,0 3.13,-0.14 4.13,-1.14 0.54,-0.54 0.88,-1.57 0.97,-2.02 0.06,-0.26 0.09,-0.34 0.26,-0.34 0.11,0 0.23,0.17 0.23,0.34 0,0.17 -0.34,2.28 -0.6,3.1 -0.14,0.46 -0.2,0.54 -0.63,0.71 -1.02,0.4 -2.9,0.54 -4.53,0.54 -3.74,-0.01 -6.27,-0.89 -8.24,-2.6 z"
   id="path255"
   style="fill:#000000;stroke:#ffffff;stroke-opacity:1;paint-order:stroke markers fill" />
		<path
   class="st0"
   d="m 263.54,272.54 c 0.31,-0.8 0.43,-0.94 0.6,-0.94 0.26,0 0.34,0.34 0.6,0.88 0.46,1.03 4.47,11.02 6.01,14.69 0.91,2.16 1.59,2.48 2.14,2.65 0.37,0.11 0.74,0.14 1,0.14 0.14,0 0.31,0.06 0.31,0.2 0,0.14 -0.28,0.2 -0.57,0.2 -0.37,0 -2.22,0 -3.96,-0.06 -0.48,-0.03 -0.88,-0.03 -0.88,-0.17 0,-0.11 0.06,-0.11 0.17,-0.17 0.14,-0.06 0.4,-0.26 0.23,-0.65 l -2.25,-5.55 c -0.06,-0.11 -0.09,-0.14 -0.23,-0.14 h -5.78 c -0.11,0 -0.2,0.06 -0.26,0.2 l -1.42,3.87 c -0.23,0.6 -0.37,1.2 -0.37,1.62 0,0.48 0.43,0.65 0.85,0.65 h 0.23 c 0.2,0 0.26,0.09 0.26,0.2 0,0.14 -0.14,0.2 -0.37,0.2 -0.6,0 -1.96,-0.08 -2.25,-0.08 -0.26,0 -1.51,0.08 -2.53,0.08 -0.31,0 -0.48,-0.06 -0.48,-0.2 0,-0.11 0.11,-0.2 0.23,-0.2 0.17,0 0.54,-0.03 0.74,-0.06 1.14,-0.14 1.62,-1 2.11,-2.22 z m 2.79,10.08 c 0.11,0 0.11,-0.06 0.09,-0.17 l -2.48,-6.63 c -0.14,-0.37 -0.28,-0.37 -0.43,0 l -2.33,6.63 c -0.03,0.11 0,0.17 0.09,0.17 z"
   id="path257"
   style="fill:#000000;stroke:#ffffff;stroke-opacity:1;paint-order:stroke markers fill" />
		<path
   class="st0"
   d="m 279.23,283.39 c 0,3.56 0.06,5.01 0.51,5.44 0.4,0.4 1.37,0.57 3.33,0.57 1.31,0 2.42,-0.03 3.02,-0.74 0.31,-0.37 0.51,-0.88 0.6,-1.37 0.03,-0.17 0.11,-0.31 0.26,-0.31 0.11,0 0.17,0.11 0.17,0.37 0,0.26 -0.17,1.71 -0.37,2.42 -0.17,0.57 -0.26,0.66 -1.59,0.66 -1.79,0 -3.19,-0.03 -4.36,-0.09 -1.14,-0.03 -1.99,-0.06 -2.73,-0.06 -0.11,0 -0.54,0 -1.03,0.03 -0.51,0.03 -1.05,0.06 -1.45,0.06 -0.26,0 -0.4,-0.06 -0.4,-0.2 0,-0.08 0.06,-0.2 0.2,-0.2 0.23,0 0.54,-0.06 0.77,-0.11 0.48,-0.11 0.54,-0.57 0.65,-1.28 0.14,-1 0.14,-2.9 0.14,-5.24 v -4.27 c 0,-3.76 0,-4.44 -0.06,-5.21 -0.06,-0.83 -0.2,-1.22 -1.02,-1.34 -0.2,-0.03 -0.63,-0.06 -0.85,-0.06 -0.09,0 -0.2,-0.11 -0.2,-0.2 0,-0.14 0.11,-0.2 0.4,-0.2 1.14,0 2.71,0.06 2.85,0.06 0.11,0 1.99,-0.06 2.76,-0.06 0.26,0 0.4,0.06 0.4,0.2 0,0.09 -0.11,0.17 -0.2,0.17 -0.17,0 -0.54,0.03 -0.83,0.06 -0.74,0.14 -0.88,0.51 -0.94,1.37 -0.03,0.77 -0.03,1.45 -0.03,5.21 z"
   id="path259"
   style="fill:#000000;stroke:#ffffff;stroke-opacity:1;paint-order:stroke markers fill" />
		<path
   class="st0"
   d="m 297.13,285.42 c 0,-2.78 1.79,-4.64 3.64,-5.74 -0.88,-1.24 -1.17,-2.21 -1.17,-3.29 0,-1.88 1.93,-4.38 5.12,-4.38 1.21,0 2.24,0.24 2.88,0.6 0.29,0.17 0.31,0.31 0.31,0.59 0,0.71 -0.1,2.38 -0.17,2.74 -0.07,0.36 -0.14,0.41 -0.24,0.41 -0.12,0 -0.14,-0.1 -0.14,-0.45 0,-0.62 -0.14,-1.4 -0.74,-2.02 -0.52,-0.55 -1.33,-1.05 -2.38,-1.05 -1.43,0 -3.02,0.88 -3.02,3.12 0,1.86 1.29,3.4 3.76,6.09 0.81,0.88 3.74,3.62 4.5,4.26 0.67,-0.9 1.21,-2.5 1.21,-3.95 0,-0.36 -0.1,-0.81 -0.45,-1.17 -0.31,-0.31 -0.81,-0.38 -1.17,-0.38 -0.14,0 -0.29,-0.05 -0.29,-0.17 0,-0.12 0.19,-0.17 0.38,-0.17 0.57,0 1.52,0.02 2.86,0.17 0.36,0.05 0.43,0.24 0.43,0.48 0,1.93 -1.31,4.33 -2.36,5.62 1.57,1.33 2.62,1.98 3.29,2.36 0.76,0.45 1.98,0.93 2.83,0.93 0.21,0 0.33,0.02 0.33,0.17 0,0.09 -0.19,0.17 -0.41,0.17 h -2.33 c -1.76,0 -2.33,-0.17 -4.95,-2.24 -0.55,0.55 -2.43,2.57 -5.95,2.57 -4.15,-0.01 -5.77,-3.19 -5.77,-5.27 z m 11.12,2.24 c -1.33,-1.1 -3.69,-3.36 -4.31,-4.02 -0.62,-0.67 -2.14,-2.36 -2.81,-3.33 -1.24,0.81 -2.14,2.09 -2.14,4 0,2.98 2.09,5.12 4.76,5.12 2.22,-0.01 3.69,-0.93 4.5,-1.77 z"
   id="path261"
   style="fill:#000000;stroke:#ffffff;stroke-opacity:1;paint-order:stroke markers fill" />
		<path
   class="st0"
   d="m 326.61,287.69 c -2.76,-2.48 -3.45,-5.72 -3.45,-8.43 0,-1.91 0.66,-5.24 3.19,-7.77 1.71,-1.71 4.3,-3.05 8.68,-3.05 1.14,0 2.73,0.09 4.13,0.34 1.08,0.2 1.99,0.37 2.9,0.43 0.31,0.03 0.37,0.14 0.37,0.31 0,0.23 -0.09,0.57 -0.14,1.59 -0.06,0.94 -0.06,2.51 -0.08,2.93 -0.03,0.43 -0.09,0.6 -0.26,0.6 -0.2,0 -0.23,-0.2 -0.23,-0.6 0,-1.11 -0.46,-2.28 -1.2,-2.9 -1,-0.85 -3.19,-1.62 -5.69,-1.62 -3.79,0 -5.55,1.11 -6.55,2.08 -2.08,1.99 -2.56,4.53 -2.56,7.43 0,5.44 4.19,10.42 10.28,10.42 2.14,0 3.82,-0.26 4.96,-1.42 0.6,-0.63 0.97,-1.88 1.05,-2.39 0.06,-0.31 0.11,-0.43 0.29,-0.43 0.14,0 0.2,0.2 0.2,0.43 0,0.2 -0.34,2.68 -0.63,3.64 -0.17,0.54 -0.23,0.6 -0.74,0.83 -1.14,0.46 -3.3,0.66 -5.13,0.66 -4.27,-0.01 -7.14,-1.06 -9.39,-3.08 z"
   id="path263"
   style="fill:#000000;stroke:#ffffff;stroke-opacity:1;paint-order:stroke markers fill" />
		<path
   class="st0"
   d="m 354.91,271.72 c 5.64,0 9.91,3.45 9.91,9.08 0,5.41 -4.01,9.88 -10.05,9.88 -6.86,0 -9.79,-5.15 -9.79,-9.51 0,-3.9 3.01,-9.45 9.93,-9.45 z m 0.57,17.96 c 2.25,0 6.78,-1.2 6.78,-8.2 0,-5.81 -3.53,-8.86 -7.49,-8.86 -4.19,0 -7.2,2.62 -7.2,7.89 0,5.64 3.38,9.17 7.91,9.17 z"
   id="path265"
   style="fill:#000000;stroke:#ffffff;stroke-opacity:1;paint-order:stroke markers fill" />
		<path
   class="st0"
   d="m 387.88,287.26 c 0.09,0.85 0.26,2.16 1.28,2.51 0.71,0.23 1.37,0.23 1.62,0.23 0.11,0 0.2,0.06 0.2,0.17 0,0.14 -0.23,0.23 -0.51,0.23 -0.57,0 -3.36,-0.03 -4.27,-0.11 -0.6,-0.06 -0.71,-0.14 -0.71,-0.26 0,-0.09 0.06,-0.17 0.17,-0.2 0.14,-0.03 0.17,-0.4 0.11,-0.85 l -1.2,-12.3 h -0.06 l -6.04,12.36 c -0.51,1.05 -0.66,1.28 -0.88,1.28 -0.22,0 -0.37,-0.23 -0.85,-1.11 -0.65,-1.2 -2.31,-4.3 -2.93,-5.61 -0.74,-1.54 -2.76,-5.61 -3.19,-6.61 h -0.11 l -0.97,10.93 c -0.03,0.37 -0.03,0.83 -0.03,1.22 0,0.37 0.23,0.6 0.6,0.68 0.43,0.11 0.8,0.14 0.97,0.14 0.08,0 0.2,0.09 0.2,0.17 0,0.17 -0.17,0.23 -0.46,0.23 -0.94,0 -2.14,-0.08 -2.33,-0.08 -0.23,0 -1.42,0.08 -2.11,0.08 -0.26,0 -0.43,-0.06 -0.43,-0.23 0,-0.08 0.11,-0.17 0.26,-0.17 0.2,0 0.37,-0.03 0.74,-0.08 0.83,-0.14 0.85,-1.03 0.97,-1.94 l 1.82,-15.8 c 0.03,-0.26 0.14,-0.43 0.28,-0.43 0.17,0 0.37,0.09 0.51,0.37 l 7.57,15.03 7.29,-15.01 c 0.11,-0.23 0.23,-0.4 0.4,-0.4 0.17,0 0.31,0.2 0.37,0.66 z"
   id="path267"
   style="fill:#000000;stroke:#ffffff;stroke-opacity:1;paint-order:stroke markers fill" />
		<path
   class="st0"
   d="m 394.24,279.06 c 0,-3.76 0,-4.44 -0.06,-5.21 -0.06,-0.83 -0.2,-1.22 -1.03,-1.34 -0.2,-0.03 -0.63,-0.06 -0.85,-0.06 -0.09,0 -0.2,-0.11 -0.2,-0.2 0,-0.14 0.11,-0.2 0.4,-0.2 1.14,0 2.71,0.06 2.9,0.06 0.54,0 2.42,-0.06 3.56,-0.06 3.22,0 4.36,1 4.78,1.37 0.57,0.51 1.25,1.59 1.25,2.9 0,3.47 -2.62,5.78 -6.46,5.78 -0.14,0 -0.57,0 -0.71,-0.03 -0.11,0 -0.26,-0.11 -0.26,-0.23 0,-0.2 0.14,-0.26 0.65,-0.26 2.71,0 4.64,-1.71 4.64,-3.9 0,-0.8 -0.09,-2.36 -1.42,-3.67 -1.31,-1.31 -2.82,-1.17 -3.39,-1.17 -0.43,0 -1.14,0.11 -1.4,0.17 -0.14,0.03 -0.2,0.2 -0.2,0.46 v 9.85 c 0,2.33 0,4.24 0.11,5.24 0.08,0.71 0.23,1.17 1,1.28 0.34,0.06 0.88,0.11 1.11,0.11 0.14,0 0.2,0.11 0.2,0.2 0,0.11 -0.11,0.2 -0.4,0.2 -1.37,0 -3.02,-0.08 -3.13,-0.08 -0.08,0 -1.71,0.08 -2.48,0.08 -0.26,0 -0.4,-0.06 -0.4,-0.2 0,-0.08 0.06,-0.2 0.2,-0.2 0.23,0 0.54,-0.06 0.77,-0.11 0.48,-0.11 0.54,-0.57 0.65,-1.28 0.14,-1 0.14,-2.9 0.14,-5.24 v -4.26 z"
   id="path269"
   style="fill:#000000;stroke:#ffffff;stroke-opacity:1;paint-order:stroke markers fill" />
		<path
   class="st0"
   d="m 409.1,279.06 c 0,-3.76 0,-4.44 -0.06,-5.21 -0.06,-0.77 -0.2,-1.22 -1.03,-1.34 -0.2,-0.03 -0.63,-0.06 -0.85,-0.06 -0.09,0 -0.2,-0.11 -0.2,-0.2 0,-0.14 0.11,-0.2 0.4,-0.2 1.14,0 2.65,0.06 2.88,0.06 0.23,0 1.79,-0.06 2.53,-0.06 0.29,0 0.43,0.06 0.43,0.2 0,0.09 -0.11,0.2 -0.23,0.2 -0.17,0 -0.31,0 -0.63,0.06 -0.66,0.11 -0.8,0.54 -0.85,1.34 -0.06,0.77 -0.06,1.45 -0.06,5.21 v 3.39 c 0,3.5 0.77,4.95 1.85,5.92 1.22,1.11 2.31,1.31 3.73,1.31 1.54,0 3.02,-0.68 3.87,-1.71 1.17,-1.39 1.42,-3.39 1.42,-5.87 v -3.05 c 0,-3.76 -0.03,-4.44 -0.06,-5.21 -0.03,-0.77 -0.17,-1.22 -1,-1.34 -0.2,-0.03 -0.63,-0.06 -0.85,-0.06 -0.11,0 -0.2,-0.11 -0.2,-0.2 0,-0.14 0.11,-0.2 0.4,-0.2 1.11,0 2.56,0.06 2.71,0.06 0.17,0 1.37,-0.06 2.11,-0.06 0.28,0 0.4,0.06 0.4,0.2 0,0.09 -0.09,0.2 -0.2,0.2 -0.17,0 -0.31,0 -0.63,0.06 -0.68,0.14 -0.83,0.54 -0.88,1.34 -0.06,0.77 -0.03,1.45 -0.03,5.21 v 2.59 c 0,2.62 -0.34,5.55 -2.33,7.26 -1.82,1.57 -3.76,1.76 -5.24,1.76 -0.83,0 -3.45,-0.06 -5.21,-1.71 -1.22,-1.14 -2.19,-2.82 -2.19,-6.35 z"
   id="path271"
   style="fill:#000000;stroke:#ffffff;stroke-opacity:1;paint-order:stroke markers fill" />
		<path
   class="st0"
   d="m 436.15,283.33 c 0,2.33 0,4.24 0.11,5.24 0.08,0.71 0.2,1.17 0.97,1.28 0.34,0.06 0.91,0.11 1.14,0.11 0.17,0 0.2,0.11 0.2,0.2 0,0.11 -0.11,0.2 -0.4,0.2 -1.37,0 -2.96,-0.08 -3.1,-0.08 -0.11,0 -1.85,0.08 -2.59,0.08 -0.29,0 -0.4,-0.06 -0.4,-0.2 0,-0.08 0.06,-0.17 0.2,-0.17 0.23,0 0.51,-0.06 0.74,-0.11 0.51,-0.11 0.66,-0.6 0.74,-1.31 0.11,-1 0.11,-2.9 0.11,-5.24 v -10.17 l -3.62,0.06 c -1.57,0.03 -2.16,0.2 -2.53,0.77 -0.29,0.43 -0.31,0.6 -0.4,0.77 -0.06,0.2 -0.14,0.23 -0.26,0.23 -0.06,0 -0.17,-0.06 -0.17,-0.2 0,-0.26 0.48,-2.42 0.54,-2.62 0.03,-0.14 0.17,-0.46 0.26,-0.46 0.17,0 0.43,0.2 1.11,0.29 0.71,0.08 1.68,0.11 1.96,0.11 h 9.45 c 0.83,0 1.39,-0.06 1.79,-0.11 0.37,-0.06 0.6,-0.11 0.71,-0.11 0.11,0 0.11,0.14 0.11,0.29 0,0.74 -0.09,2.48 -0.09,2.76 0,0.2 -0.11,0.31 -0.23,0.31 -0.11,0 -0.17,-0.08 -0.2,-0.43 l -0.03,-0.26 c -0.08,-0.74 -0.63,-1.28 -3.02,-1.34 l -3.13,-0.06 v 10.17 z"
   id="path273"
   style="fill:#000000;stroke:#ffffff;stroke-opacity:1;paint-order:stroke markers fill" />
		<path
   class="st0"
   d="m 447.51,279.06 c 0,-3.76 0,-4.44 -0.06,-5.21 -0.06,-0.83 -0.2,-1.22 -1.03,-1.34 -0.2,-0.03 -0.63,-0.06 -0.85,-0.06 -0.09,0 -0.2,-0.11 -0.2,-0.2 0,-0.14 0.11,-0.2 0.4,-0.2 1.14,0 2.76,0.06 2.9,0.06 0.17,0 5.41,0.03 5.98,0 0.48,-0.03 0.94,-0.11 1.14,-0.14 0.11,-0.03 0.23,-0.11 0.34,-0.11 0.08,0 0.11,0.11 0.11,0.23 0,0.17 -0.14,0.46 -0.2,1.14 -0.03,0.23 -0.08,1.31 -0.14,1.59 -0.03,0.11 -0.11,0.26 -0.23,0.26 -0.14,0 -0.2,-0.11 -0.2,-0.31 0,-0.17 -0.03,-0.57 -0.14,-0.85 -0.17,-0.4 -0.43,-0.57 -1.79,-0.74 -0.43,-0.06 -3.33,-0.08 -3.62,-0.08 -0.11,0 -0.14,0.08 -0.14,0.26 v 6.58 c 0,0.17 0,0.26 0.14,0.26 0.31,0 3.62,0 4.18,-0.06 0.6,-0.06 0.97,-0.08 1.22,-0.34 0.17,-0.17 0.29,-0.31 0.37,-0.31 0.09,0 0.14,0.06 0.14,0.2 0,0.14 -0.14,0.54 -0.2,1.34 -0.06,0.48 -0.11,1.4 -0.11,1.57 0,0.2 -0.06,0.46 -0.23,0.46 -0.11,0 -0.17,-0.08 -0.17,-0.23 0,-0.23 0,-0.48 -0.11,-0.8 -0.08,-0.34 -0.31,-0.63 -1.28,-0.74 -0.68,-0.08 -3.36,-0.11 -3.79,-0.11 -0.14,0 -0.17,0.08 -0.17,0.17 v 2.02 c 0,0.83 -0.03,3.64 0,4.13 0.06,1.62 0.51,1.94 2.99,1.94 0.66,0 1.85,0 2.51,-0.26 0.65,-0.29 1,-0.71 1.14,-1.68 0.06,-0.29 0.11,-0.37 0.26,-0.37 0.14,0 0.17,0.2 0.17,0.37 0,0.17 -0.2,1.82 -0.34,2.33 -0.17,0.63 -0.43,0.63 -1.4,0.63 -1.88,0 -3.33,-0.06 -4.36,-0.09 -1.05,-0.06 -1.71,-0.06 -2.08,-0.06 -0.06,0 -0.54,0 -1.08,0.03 -0.48,0.03 -1.05,0.06 -1.45,0.06 -0.26,0 -0.4,-0.06 -0.4,-0.2 0,-0.08 0.06,-0.2 0.2,-0.2 0.23,0 0.54,-0.08 0.77,-0.11 0.48,-0.09 0.54,-0.57 0.65,-1.28 0.14,-1 0.14,-2.9 0.14,-5.24 v -4.31 z"
   id="path275"
   style="fill:#000000;stroke:#ffffff;stroke-opacity:1;paint-order:stroke markers fill" />
		<path
   class="st0"
   d="m 462.66,279.06 c 0,-3.76 0,-4.44 -0.06,-5.21 -0.06,-0.83 -0.2,-1.22 -1.03,-1.34 -0.2,-0.03 -0.63,-0.06 -0.85,-0.06 -0.09,0 -0.2,-0.11 -0.2,-0.2 0,-0.14 0.11,-0.2 0.4,-0.2 1.14,0 2.82,0.06 2.96,0.06 0.26,0 2.36,-0.06 3.13,-0.06 1.59,0 3.36,0.14 4.67,1.05 0.63,0.46 1.74,1.62 1.74,3.3 0,1.79 -0.74,3.53 -3.08,5.52 2.05,2.56 3.79,4.75 5.24,6.26 1.34,1.37 2.16,1.59 2.79,1.68 0.48,0.08 0.74,0.08 0.88,0.08 0.14,0 0.23,0.11 0.23,0.2 0,0.14 -0.14,0.2 -0.6,0.2 h -1.57 c -1.42,0 -2.05,-0.14 -2.68,-0.48 -1.08,-0.57 -1.99,-1.74 -3.42,-3.56 -1.05,-1.31 -2.16,-2.88 -2.71,-3.53 -0.11,-0.11 -0.17,-0.14 -0.34,-0.14 l -3.19,-0.06 c -0.11,0 -0.17,0.06 -0.17,0.2 v 0.57 c 0,2.33 0,4.21 0.11,5.21 0.08,0.71 0.23,1.17 1,1.28 0.34,0.06 0.88,0.11 1.11,0.11 0.17,0 0.2,0.11 0.2,0.2 0,0.11 -0.11,0.2 -0.4,0.2 -1.37,0 -2.96,-0.08 -3.08,-0.08 -0.03,0 -1.71,0.08 -2.48,0.08 -0.26,0 -0.4,-0.06 -0.4,-0.2 0,-0.08 0.06,-0.2 0.2,-0.2 0.23,0 0.54,-0.06 0.77,-0.11 0.48,-0.11 0.54,-0.57 0.65,-1.28 0.14,-1 0.14,-2.9 0.14,-5.24 v -4.25 z m 2.16,2.05 c 0,0.14 0.06,0.23 0.17,0.31 0.37,0.2 1.65,0.37 2.76,0.37 0.6,0 1.28,-0.03 1.88,-0.43 0.85,-0.57 1.51,-1.85 1.51,-3.7 0,-3.02 -1.65,-4.75 -4.33,-4.75 -0.74,0 -1.54,0.08 -1.79,0.14 -0.11,0.06 -0.2,0.14 -0.2,0.29 z"
   id="path277"
   style="fill:#000000;stroke:#ffffff;stroke-opacity:1;paint-order:stroke markers fill" />
		<path
   class="st0"
   d="m 490.62,277.1 c 0,-4.44 0,-5.24 -0.06,-6.15 -0.06,-0.97 -0.28,-1.42 -1.22,-1.62 -0.23,-0.06 -0.71,-0.08 -0.97,-0.08 -0.11,0 -0.23,-0.06 -0.23,-0.17 0,-0.17 0.14,-0.23 0.46,-0.23 0.65,0 1.42,0 2.05,0.03 l 1.17,0.06 c 0.2,0 5.87,0 6.52,-0.03 0.54,-0.03 1,-0.09 1.22,-0.14 0.14,-0.03 0.26,-0.14 0.4,-0.14 0.09,0 0.11,0.11 0.11,0.26 0,0.2 -0.14,0.54 -0.23,1.34 -0.03,0.28 -0.08,1.54 -0.14,1.88 -0.03,0.14 -0.09,0.31 -0.2,0.31 -0.17,0 -0.23,-0.14 -0.23,-0.37 0,-0.2 -0.03,-0.68 -0.17,-1.03 -0.2,-0.46 -0.48,-0.8 -2.02,-0.97 -0.48,-0.06 -3.59,-0.09 -3.9,-0.09 -0.11,0 -0.17,0.09 -0.17,0.29 v 7.86 c 0,0.2 0.03,0.29 0.17,0.29 0.37,0 3.87,0 4.53,-0.06 0.68,-0.06 1.08,-0.11 1.34,-0.4 0.2,-0.23 0.31,-0.37 0.43,-0.37 0.09,0 0.14,0.06 0.14,0.23 0,0.17 -0.14,0.66 -0.23,1.59 -0.06,0.57 -0.11,1.62 -0.11,1.82 0,0.23 0,0.54 -0.2,0.54 -0.14,0 -0.2,-0.11 -0.2,-0.26 0,-0.29 0,-0.57 -0.11,-0.94 -0.11,-0.4 -0.37,-0.88 -1.48,-1 -0.77,-0.08 -3.59,-0.14 -4.07,-0.14 -0.14,0 -0.2,0.09 -0.2,0.2 v 2.51 c 0,0.97 -0.03,4.27 0,4.87 0.08,1.96 0.51,2.33 3.3,2.33 0.74,0 1.99,0 2.73,-0.31 0.74,-0.31 1.08,-0.88 1.28,-2.05 0.06,-0.31 0.11,-0.43 0.26,-0.43 0.17,0 0.17,0.23 0.17,0.43 0,0.23 -0.23,2.16 -0.37,2.76 -0.2,0.74 -0.43,0.74 -1.54,0.74 -2.14,0 -3.7,-0.06 -4.81,-0.09 -1.11,-0.06 -1.79,-0.08 -2.22,-0.08 -0.06,0 -0.54,0 -1.14,0.03 -0.57,0 -1.22,0.06 -1.65,0.06 -0.31,0 -0.46,-0.06 -0.46,-0.23 0,-0.08 0.06,-0.17 0.23,-0.17 0.26,0 0.6,-0.06 0.85,-0.11 0.57,-0.11 0.71,-0.74 0.83,-1.57 0.14,-1.2 0.14,-3.45 0.14,-6.18 z"
   id="path279"
   style="fill:#000000;stroke:#ffffff;stroke-opacity:1;paint-order:stroke markers fill" />
		<path
   class="st0"
   d="m 507.85,287.06 c 0.06,1.99 0.29,2.59 0.97,2.76 0.46,0.11 1.03,0.14 1.25,0.14 0.11,0 0.2,0.09 0.2,0.2 0,0.14 -0.17,0.2 -0.46,0.2 -1.42,0 -2.42,-0.08 -2.65,-0.08 -0.23,0 -1.28,0.08 -2.42,0.08 -0.26,0 -0.4,-0.03 -0.4,-0.2 0,-0.11 0.08,-0.2 0.2,-0.2 0.2,0 0.65,-0.03 1.02,-0.14 0.63,-0.17 0.71,-0.83 0.71,-3.02 v -13.87 c 0,-0.97 0.14,-1.22 0.34,-1.22 0.29,0 0.71,0.48 0.97,0.74 0.4,0.4 4.04,4.27 7.92,8.26 2.48,2.56 5.15,5.44 5.92,6.24 l -0.26,-12.13 c -0.03,-1.57 -0.17,-2.11 -0.94,-2.25 -0.46,-0.09 -1.03,-0.11 -1.22,-0.11 -0.17,0 -0.2,-0.14 -0.2,-0.23 0,-0.14 0.2,-0.17 0.48,-0.17 1.14,0 2.33,0.06 2.62,0.06 0.29,0 1.11,-0.06 2.14,-0.06 0.26,0 0.46,0.03 0.46,0.17 0,0.08 -0.11,0.23 -0.28,0.23 -0.11,0 -0.31,0 -0.6,0.06 -0.83,0.17 -0.88,0.65 -0.88,2.11 l -0.06,14.18 c 0,1.59 -0.03,1.74 -0.2,1.74 -0.26,0 -0.51,-0.2 -1.91,-1.48 -0.26,-0.23 -3.87,-3.79 -6.52,-6.55 -2.9,-3.05 -5.72,-6.01 -6.49,-6.86 z"
   id="path281"
   style="fill:#000000;stroke:#ffffff;stroke-opacity:1;paint-order:stroke markers fill" />
		<path
   class="st0"
   d="m 540.94,284.19 c 0,-1.96 -0.06,-2.25 -1.08,-2.45 -0.2,-0.03 -0.63,-0.06 -0.85,-0.06 -0.08,0 -0.2,-0.11 -0.2,-0.2 0,-0.17 0.11,-0.2 0.4,-0.2 1.14,0 2.82,0.06 2.96,0.06 0.11,0 1.68,-0.06 2.45,-0.06 0.29,0 0.4,0.03 0.4,0.2 0,0.08 -0.11,0.2 -0.2,0.2 -0.17,0 -0.34,0 -0.63,0.06 -0.68,0.11 -0.88,0.48 -0.94,1.34 -0.03,0.77 -0.03,1.48 -0.03,2.51 v 2.71 c 0,1.11 -0.03,1.14 -0.34,1.31 -1.59,0.83 -3.87,1.08 -5.33,1.08 -1.91,0 -5.47,-0.23 -8.26,-2.59 -1.54,-1.28 -2.99,-3.87 -2.99,-6.89 0,-3.87 1.96,-6.61 4.19,-7.94 2.25,-1.37 4.75,-1.54 6.66,-1.54 1.59,0 3.36,0.29 3.84,0.4 0.51,0.11 1.4,0.26 2.02,0.26 0.26,0 0.31,0.11 0.31,0.23 0,0.34 -0.14,1 -0.14,3.42 0,0.4 -0.11,0.51 -0.28,0.51 -0.14,0 -0.17,-0.14 -0.17,-0.37 -0.03,-0.31 -0.17,-1.03 -0.57,-1.59 -0.63,-0.91 -2.53,-1.88 -5.78,-1.88 -1.51,0 -3.33,0.11 -5.24,1.57 -1.45,1.11 -2.48,3.27 -2.48,6.09 0,3.42 1.76,5.87 2.65,6.69 1.99,1.85 4.1,2.53 6.41,2.53 0.88,0 2.05,-0.08 2.71,-0.46 0.31,-0.17 0.51,-0.29 0.51,-0.74 z"
   id="path283"
   style="fill:#000000;stroke:#ffffff;stroke-opacity:1;paint-order:stroke markers fill" />
		<path
   class="st0"
   d="m 552.5,283.33 c 0,2.33 0,4.24 0.11,5.24 0.09,0.71 0.17,1.17 0.91,1.28 0.37,0.06 0.91,0.11 1.14,0.11 0.14,0 0.2,0.11 0.2,0.2 0,0.11 -0.11,0.2 -0.4,0.2 -1.4,0 -3.02,-0.08 -3.13,-0.08 -0.14,0 -1.71,0.08 -2.48,0.08 -0.26,0 -0.4,-0.06 -0.4,-0.2 0,-0.08 0.06,-0.2 0.2,-0.2 0.23,0 0.54,-0.06 0.77,-0.11 0.48,-0.11 0.57,-0.57 0.65,-1.28 0.11,-1 0.14,-2.9 0.14,-5.24 v -4.27 c 0,-3.76 0,-4.44 -0.06,-5.21 -0.06,-0.83 -0.26,-1.2 -0.8,-1.31 -0.29,-0.06 -0.6,-0.09 -0.77,-0.09 -0.11,0 -0.2,-0.11 -0.2,-0.2 0,-0.14 0.11,-0.2 0.4,-0.2 0.83,0 2.39,0.06 2.53,0.06 0.11,0 1.74,-0.06 2.51,-0.06 0.29,0 0.4,0.06 0.4,0.2 0,0.09 -0.11,0.2 -0.2,0.2 -0.17,0 -0.34,0 -0.63,0.06 -0.68,0.14 -0.83,0.48 -0.88,1.34 -0.03,0.77 -0.03,1.45 -0.03,5.21 v 4.27 z"
   id="path285"
   style="fill:#000000;stroke:#ffffff;stroke-opacity:1;paint-order:stroke markers fill" />
		<path
   class="st0"
   d="m 561.24,287.06 c 0.06,1.99 0.29,2.59 0.97,2.76 0.46,0.11 1.03,0.14 1.25,0.14 0.11,0 0.2,0.09 0.2,0.2 0,0.14 -0.17,0.2 -0.46,0.2 -1.42,0 -2.42,-0.08 -2.65,-0.08 -0.23,0 -1.28,0.08 -2.42,0.08 -0.26,0 -0.4,-0.03 -0.4,-0.2 0,-0.11 0.08,-0.2 0.2,-0.2 0.2,0 0.65,-0.03 1.02,-0.14 0.63,-0.17 0.71,-0.83 0.71,-3.02 v -13.87 c 0,-0.97 0.14,-1.22 0.34,-1.22 0.29,0 0.71,0.48 0.97,0.74 0.4,0.4 4.04,4.27 7.92,8.26 2.48,2.56 5.15,5.44 5.92,6.24 l -0.26,-12.13 c -0.03,-1.57 -0.17,-2.11 -0.94,-2.25 -0.46,-0.09 -1.03,-0.11 -1.22,-0.11 -0.17,0 -0.2,-0.14 -0.2,-0.23 0,-0.14 0.2,-0.17 0.48,-0.17 1.14,0 2.33,0.06 2.62,0.06 0.29,0 1.11,-0.06 2.14,-0.06 0.26,0 0.46,0.03 0.46,0.17 0,0.08 -0.11,0.23 -0.28,0.23 -0.11,0 -0.31,0 -0.6,0.06 -0.83,0.17 -0.88,0.65 -0.88,2.11 l -0.06,14.18 c 0,1.59 -0.03,1.74 -0.2,1.74 -0.26,0 -0.51,-0.2 -1.91,-1.48 -0.26,-0.23 -3.87,-3.79 -6.52,-6.55 -2.9,-3.05 -5.72,-6.01 -6.49,-6.86 z"
   id="path287"
   style="fill:#000000;stroke:#ffffff;stroke-opacity:1;paint-order:stroke markers fill" />
		<path
   class="st0"
   d="m 582.79,279.06 c 0,-3.76 0,-4.44 -0.06,-5.21 -0.06,-0.83 -0.2,-1.22 -1.03,-1.34 -0.2,-0.03 -0.63,-0.06 -0.85,-0.06 -0.09,0 -0.2,-0.11 -0.2,-0.2 0,-0.14 0.11,-0.2 0.4,-0.2 1.14,0 2.76,0.06 2.9,0.06 0.17,0 5.41,0.03 5.98,0 0.48,-0.03 0.94,-0.11 1.14,-0.14 0.11,-0.03 0.23,-0.11 0.34,-0.11 0.08,0 0.11,0.11 0.11,0.23 0,0.17 -0.14,0.46 -0.2,1.14 -0.03,0.23 -0.08,1.31 -0.14,1.59 -0.03,0.11 -0.11,0.26 -0.23,0.26 -0.14,0 -0.2,-0.11 -0.2,-0.31 0,-0.17 -0.03,-0.57 -0.14,-0.85 -0.17,-0.4 -0.43,-0.57 -1.79,-0.74 -0.43,-0.06 -3.33,-0.08 -3.62,-0.08 -0.11,0 -0.14,0.08 -0.14,0.26 v 6.58 c 0,0.17 0,0.26 0.14,0.26 0.31,0 3.62,0 4.19,-0.06 0.6,-0.06 0.97,-0.08 1.22,-0.34 0.17,-0.17 0.29,-0.31 0.37,-0.31 0.09,0 0.14,0.06 0.14,0.2 0,0.14 -0.14,0.54 -0.2,1.34 -0.06,0.48 -0.11,1.4 -0.11,1.57 0,0.2 -0.06,0.46 -0.23,0.46 -0.11,0 -0.17,-0.08 -0.17,-0.23 0,-0.23 0,-0.48 -0.11,-0.8 -0.08,-0.34 -0.31,-0.63 -1.28,-0.74 -0.68,-0.08 -3.36,-0.11 -3.79,-0.11 -0.14,0 -0.17,0.08 -0.17,0.17 v 2.02 c 0,0.83 -0.03,3.64 0,4.13 0.06,1.62 0.51,1.94 2.99,1.94 0.66,0 1.85,0 2.51,-0.26 0.65,-0.29 1,-0.71 1.14,-1.68 0.06,-0.29 0.11,-0.37 0.26,-0.37 0.14,0 0.17,0.2 0.17,0.37 0,0.17 -0.2,1.82 -0.34,2.33 -0.17,0.63 -0.43,0.63 -1.4,0.63 -1.88,0 -3.33,-0.06 -4.36,-0.09 -1.05,-0.06 -1.71,-0.06 -2.08,-0.06 -0.06,0 -0.54,0 -1.08,0.03 -0.48,0.03 -1.05,0.06 -1.45,0.06 -0.26,0 -0.4,-0.06 -0.4,-0.2 0,-0.08 0.06,-0.2 0.2,-0.2 0.23,0 0.54,-0.08 0.77,-0.11 0.48,-0.09 0.54,-0.57 0.65,-1.28 0.14,-1 0.14,-2.9 0.14,-5.24 v -4.31 z"
   id="path289"
   style="fill:#000000;stroke:#ffffff;stroke-opacity:1;paint-order:stroke markers fill" />
		<path
   class="st0"
   d="m 597.94,279.06 c 0,-3.76 0,-4.44 -0.06,-5.21 -0.06,-0.83 -0.2,-1.22 -1.03,-1.34 -0.2,-0.03 -0.63,-0.06 -0.85,-0.06 -0.09,0 -0.2,-0.11 -0.2,-0.2 0,-0.14 0.11,-0.2 0.4,-0.2 1.14,0 2.76,0.06 2.9,0.06 0.17,0 5.41,0.03 5.98,0 0.48,-0.03 0.94,-0.11 1.14,-0.14 0.11,-0.03 0.23,-0.11 0.34,-0.11 0.08,0 0.11,0.11 0.11,0.23 0,0.17 -0.14,0.46 -0.2,1.14 -0.03,0.23 -0.08,1.31 -0.14,1.59 -0.03,0.11 -0.11,0.26 -0.23,0.26 -0.14,0 -0.2,-0.11 -0.2,-0.31 0,-0.17 -0.03,-0.57 -0.14,-0.85 -0.17,-0.4 -0.43,-0.57 -1.79,-0.74 -0.43,-0.06 -3.33,-0.08 -3.62,-0.08 -0.11,0 -0.14,0.08 -0.14,0.26 v 6.58 c 0,0.17 0,0.26 0.14,0.26 0.31,0 3.62,0 4.19,-0.06 0.6,-0.06 0.97,-0.08 1.22,-0.34 0.17,-0.17 0.29,-0.31 0.37,-0.31 0.09,0 0.14,0.06 0.14,0.2 0,0.14 -0.14,0.54 -0.2,1.34 -0.06,0.48 -0.11,1.4 -0.11,1.57 0,0.2 -0.06,0.46 -0.23,0.46 -0.11,0 -0.17,-0.08 -0.17,-0.23 0,-0.23 0,-0.48 -0.11,-0.8 -0.08,-0.34 -0.31,-0.63 -1.28,-0.74 -0.68,-0.08 -3.36,-0.11 -3.79,-0.11 -0.14,0 -0.17,0.08 -0.17,0.17 v 2.02 c 0,0.83 -0.03,3.64 0,4.13 0.06,1.62 0.51,1.94 2.99,1.94 0.66,0 1.85,0 2.51,-0.26 0.65,-0.29 1,-0.71 1.14,-1.68 0.06,-0.29 0.11,-0.37 0.26,-0.37 0.14,0 0.17,0.2 0.17,0.37 0,0.17 -0.2,1.82 -0.34,2.33 -0.17,0.63 -0.43,0.63 -1.4,0.63 -1.88,0 -3.33,-0.06 -4.36,-0.09 -1.05,-0.06 -1.71,-0.06 -2.08,-0.06 -0.06,0 -0.54,0 -1.08,0.03 -0.48,0.03 -1.05,0.06 -1.45,0.06 -0.26,0 -0.4,-0.06 -0.4,-0.2 0,-0.08 0.06,-0.2 0.2,-0.2 0.23,0 0.54,-0.08 0.77,-0.11 0.48,-0.09 0.54,-0.57 0.65,-1.28 0.14,-1 0.14,-2.9 0.14,-5.24 v -4.31 z"
   id="path291"
   style="fill:#000000;stroke:#ffffff;stroke-opacity:1;paint-order:stroke markers fill" />
		<path
   class="st0"
   d="m 612.46,279.06 c 0,-3.76 0,-4.44 -0.06,-5.21 -0.06,-0.83 -0.2,-1.22 -1.03,-1.34 -0.2,-0.03 -0.63,-0.06 -0.85,-0.06 -0.09,0 -0.2,-0.11 -0.2,-0.2 0,-0.14 0.11,-0.2 0.4,-0.2 1.14,0 2.82,0.06 2.96,0.06 0.26,0 2.36,-0.06 3.13,-0.06 1.59,0 3.36,0.14 4.67,1.05 0.63,0.46 1.74,1.62 1.74,3.3 0,1.79 -0.74,3.53 -3.08,5.52 2.05,2.56 3.79,4.75 5.24,6.26 1.34,1.37 2.16,1.59 2.79,1.68 0.48,0.08 0.74,0.08 0.88,0.08 0.14,0 0.23,0.11 0.23,0.2 0,0.14 -0.14,0.2 -0.6,0.2 h -1.57 c -1.42,0 -2.05,-0.14 -2.68,-0.48 -1.08,-0.57 -1.99,-1.74 -3.42,-3.56 -1.05,-1.31 -2.16,-2.88 -2.71,-3.53 -0.11,-0.11 -0.17,-0.14 -0.34,-0.14 l -3.19,-0.06 c -0.11,0 -0.17,0.06 -0.17,0.2 v 0.57 c 0,2.33 0,4.21 0.11,5.21 0.08,0.71 0.23,1.17 1,1.28 0.34,0.06 0.88,0.11 1.11,0.11 0.17,0 0.2,0.11 0.2,0.2 0,0.11 -0.11,0.2 -0.4,0.2 -1.37,0 -2.96,-0.08 -3.08,-0.08 -0.03,0 -1.71,0.08 -2.48,0.08 -0.26,0 -0.4,-0.06 -0.4,-0.2 0,-0.08 0.06,-0.2 0.2,-0.2 0.23,0 0.54,-0.06 0.77,-0.11 0.48,-0.11 0.54,-0.57 0.65,-1.28 0.14,-1 0.14,-2.9 0.14,-5.24 v -4.25 z m 2.17,2.05 c 0,0.14 0.06,0.23 0.17,0.31 0.37,0.2 1.65,0.37 2.76,0.37 0.6,0 1.28,-0.03 1.88,-0.43 0.85,-0.57 1.51,-1.85 1.51,-3.7 0,-3.02 -1.65,-4.75 -4.33,-4.75 -0.74,0 -1.54,0.08 -1.79,0.14 -0.11,0.06 -0.2,0.14 -0.2,0.29 z"
   id="path293"
   style="fill:#000000;stroke:#ffffff;stroke-opacity:1;paint-order:stroke markers fill" />
		<path
   class="st0"
   d="m 633.34,283.33 c 0,2.33 0,4.24 0.11,5.24 0.09,0.71 0.17,1.17 0.91,1.28 0.37,0.06 0.91,0.11 1.14,0.11 0.14,0 0.2,0.11 0.2,0.2 0,0.11 -0.11,0.2 -0.4,0.2 -1.39,0 -3.02,-0.08 -3.13,-0.08 -0.14,0 -1.71,0.08 -2.48,0.08 -0.26,0 -0.4,-0.06 -0.4,-0.2 0,-0.08 0.06,-0.2 0.2,-0.2 0.23,0 0.54,-0.06 0.77,-0.11 0.48,-0.11 0.57,-0.57 0.65,-1.28 0.11,-1 0.14,-2.9 0.14,-5.24 v -4.27 c 0,-3.76 0,-4.44 -0.06,-5.21 -0.06,-0.83 -0.26,-1.2 -0.8,-1.31 -0.29,-0.06 -0.6,-0.09 -0.77,-0.09 -0.11,0 -0.2,-0.11 -0.2,-0.2 0,-0.14 0.11,-0.2 0.4,-0.2 0.83,0 2.39,0.06 2.53,0.06 0.11,0 1.74,-0.06 2.51,-0.06 0.29,0 0.4,0.06 0.4,0.2 0,0.09 -0.11,0.2 -0.2,0.2 -0.17,0 -0.34,0 -0.63,0.06 -0.68,0.14 -0.83,0.48 -0.88,1.34 -0.03,0.77 -0.03,1.45 -0.03,5.21 v 4.27 z"
   id="path295"
   style="fill:#000000;stroke:#ffffff;stroke-opacity:1;paint-order:stroke markers fill" />
		<path
   class="st0"
   d="m 642.08,287.06 c 0.06,1.99 0.29,2.59 0.97,2.76 0.46,0.11 1.03,0.14 1.25,0.14 0.11,0 0.2,0.09 0.2,0.2 0,0.14 -0.17,0.2 -0.46,0.2 -1.42,0 -2.42,-0.08 -2.65,-0.08 -0.23,0 -1.28,0.08 -2.42,0.08 -0.26,0 -0.4,-0.03 -0.4,-0.2 0,-0.11 0.08,-0.2 0.2,-0.2 0.2,0 0.65,-0.03 1.03,-0.14 0.63,-0.17 0.71,-0.83 0.71,-3.02 v -13.87 c 0,-0.97 0.14,-1.22 0.34,-1.22 0.29,0 0.71,0.48 0.97,0.74 0.4,0.4 4.04,4.27 7.92,8.26 2.48,2.56 5.15,5.44 5.92,6.24 l -0.26,-12.13 c -0.03,-1.57 -0.17,-2.11 -0.94,-2.25 -0.46,-0.09 -1.03,-0.11 -1.22,-0.11 -0.17,0 -0.2,-0.14 -0.2,-0.23 0,-0.14 0.2,-0.17 0.48,-0.17 1.14,0 2.33,0.06 2.62,0.06 0.29,0 1.11,-0.06 2.14,-0.06 0.26,0 0.46,0.03 0.46,0.17 0,0.08 -0.11,0.23 -0.28,0.23 -0.11,0 -0.31,0 -0.6,0.06 -0.83,0.17 -0.88,0.65 -0.88,2.11 l -0.06,14.18 c 0,1.59 -0.03,1.74 -0.2,1.74 -0.26,0 -0.51,-0.2 -1.91,-1.48 -0.26,-0.23 -3.87,-3.79 -6.52,-6.55 -2.9,-3.05 -5.72,-6.01 -6.49,-6.86 z"
   id="path297"
   style="fill:#000000;stroke:#ffffff;stroke-opacity:1;paint-order:stroke markers fill" />
		<path
   class="st0"
   d="m 675.59,284.19 c 0,-1.96 -0.06,-2.25 -1.08,-2.45 -0.2,-0.03 -0.63,-0.06 -0.85,-0.06 -0.08,0 -0.2,-0.11 -0.2,-0.2 0,-0.17 0.11,-0.2 0.4,-0.2 1.14,0 2.82,0.06 2.96,0.06 0.11,0 1.68,-0.06 2.45,-0.06 0.29,0 0.4,0.03 0.4,0.2 0,0.08 -0.11,0.2 -0.2,0.2 -0.17,0 -0.34,0 -0.63,0.06 -0.68,0.11 -0.88,0.48 -0.94,1.34 -0.03,0.77 -0.03,1.48 -0.03,2.51 v 2.71 c 0,1.11 -0.03,1.14 -0.34,1.31 -1.59,0.83 -3.87,1.08 -5.33,1.08 -1.91,0 -5.47,-0.23 -8.26,-2.59 -1.54,-1.28 -2.99,-3.87 -2.99,-6.89 0,-3.87 1.96,-6.61 4.19,-7.94 2.25,-1.37 4.75,-1.54 6.66,-1.54 1.59,0 3.36,0.29 3.84,0.4 0.51,0.11 1.4,0.26 2.02,0.26 0.26,0 0.31,0.11 0.31,0.23 0,0.34 -0.14,1 -0.14,3.42 0,0.4 -0.11,0.51 -0.28,0.51 -0.14,0 -0.17,-0.14 -0.17,-0.37 -0.03,-0.31 -0.17,-1.03 -0.57,-1.59 -0.63,-0.91 -2.53,-1.88 -5.78,-1.88 -1.51,0 -3.33,0.11 -5.24,1.57 -1.45,1.11 -2.48,3.27 -2.48,6.09 0,3.42 1.76,5.87 2.65,6.69 1.99,1.85 4.1,2.53 6.41,2.53 0.88,0 2.05,-0.08 2.71,-0.46 0.31,-0.17 0.51,-0.29 0.51,-0.74 z"
   id="path299"
   style="fill:#000000;stroke:#ffffff;stroke-opacity:1;paint-order:stroke markers fill" />
		<path
   class="st0"
   d="m 246.63,311.94 c 0,-2.81 0,-3.31 -0.04,-3.89 -0.04,-0.61 -0.18,-0.9 -0.77,-1.03 -0.14,-0.04 -0.45,-0.05 -0.61,-0.05 -0.07,0 -0.14,-0.04 -0.14,-0.11 0,-0.11 0.09,-0.14 0.29,-0.14 0.81,0 1.91,0.05 2.07,0.05 0.16,0 1.24,-0.05 1.78,-0.05 0.2,0 0.29,0.04 0.29,0.14 0,0.07 -0.07,0.11 -0.14,0.11 -0.13,0 -0.23,0.02 -0.45,0.05 -0.49,0.07 -0.63,0.4 -0.67,1.03 -0.04,0.58 -0.04,1.08 -0.04,3.89 v 2.52 c 0,2.59 0.58,3.71 1.35,4.45 0.88,0.83 1.69,0.99 2.72,0.99 1.1,0 2.18,-0.52 2.83,-1.3 0.83,-1.03 1.04,-2.56 1.04,-4.41 v -2.25 c 0,-2.81 0,-3.31 -0.04,-3.89 -0.04,-0.61 -0.18,-0.9 -0.77,-1.03 -0.14,-0.04 -0.45,-0.05 -0.61,-0.05 -0.07,0 -0.14,-0.04 -0.14,-0.11 0,-0.11 0.09,-0.14 0.29,-0.14 0.81,0 1.8,0.05 1.91,0.05 0.13,0 0.97,-0.05 1.51,-0.05 0.2,0 0.29,0.04 0.29,0.14 0,0.07 -0.07,0.11 -0.14,0.11 -0.13,0 -0.23,0.02 -0.45,0.05 -0.49,0.11 -0.63,0.4 -0.67,1.03 -0.04,0.58 -0.04,1.08 -0.04,3.89 v 1.93 c 0,1.94 -0.22,4.11 -1.66,5.38 -1.3,1.15 -2.65,1.33 -3.71,1.33 -0.61,0 -2.43,-0.07 -3.71,-1.28 -0.88,-0.85 -1.57,-2.11 -1.57,-4.74 z"
   id="path301"
   style="fill:#000000;stroke:#ffffff;stroke-width:0.6;stroke-miterlimit:4;stroke-dasharray:none;stroke-opacity:1;paint-order:stroke markers fill" />
		<path
   class="st0"
   d="m 261.75,318.25 c 0.04,1.26 0.18,1.64 0.61,1.75 0.29,0.07 0.65,0.09 0.79,0.09 0.07,0 0.13,0.05 0.13,0.13 0,0.09 -0.11,0.13 -0.29,0.13 -0.9,0 -1.53,-0.05 -1.67,-0.05 -0.14,0 -0.81,0.05 -1.53,0.05 -0.16,0 -0.25,-0.02 -0.25,-0.13 0,-0.07 0.05,-0.13 0.13,-0.13 0.13,0 0.41,-0.02 0.65,-0.09 0.4,-0.11 0.45,-0.52 0.45,-1.91 v -8.77 c 0,-0.61 0.09,-0.77 0.22,-0.77 0.18,0 0.45,0.31 0.61,0.47 0.25,0.25 2.56,2.7 5.01,5.22 1.57,1.62 3.26,3.44 3.75,3.94 l -0.16,-7.67 c -0.02,-0.99 -0.11,-1.33 -0.59,-1.42 -0.29,-0.05 -0.65,-0.07 -0.77,-0.07 -0.11,0 -0.13,-0.09 -0.13,-0.14 0,-0.09 0.13,-0.11 0.31,-0.11 0.72,0 1.48,0.04 1.66,0.04 0.18,0 0.7,-0.04 1.35,-0.04 0.16,0 0.29,0.02 0.29,0.11 0,0.05 -0.07,0.14 -0.18,0.14 -0.07,0 -0.2,0 -0.38,0.04 -0.52,0.11 -0.56,0.41 -0.56,1.33 l -0.04,8.97 c 0,1.01 -0.02,1.1 -0.13,1.1 -0.16,0 -0.32,-0.13 -1.21,-0.94 -0.16,-0.14 -2.45,-2.39 -4.12,-4.14 -1.84,-1.93 -3.62,-3.8 -4.11,-4.34 z"
   id="path303"
   style="fill:#000000;stroke:#ffffff;stroke-width:0.6;stroke-miterlimit:4;stroke-dasharray:none;stroke-opacity:1;paint-order:stroke markers fill" />
		<path
   class="st0"
   d="m 277.41,315.89 c 0,1.48 0,2.68 0.07,3.31 0.05,0.45 0.11,0.74 0.58,0.81 0.23,0.04 0.58,0.07 0.72,0.07 0.09,0 0.13,0.07 0.13,0.13 0,0.07 -0.07,0.13 -0.25,0.13 -0.88,0 -1.91,-0.05 -1.98,-0.05 -0.09,0 -1.08,0.05 -1.57,0.05 -0.16,0 -0.25,-0.04 -0.25,-0.13 0,-0.05 0.04,-0.13 0.13,-0.13 0.14,0 0.34,-0.04 0.49,-0.07 0.31,-0.07 0.36,-0.36 0.41,-0.81 0.07,-0.63 0.09,-1.84 0.09,-3.31 v -2.7 c 0,-2.38 0,-2.81 -0.04,-3.29 -0.04,-0.52 -0.16,-0.76 -0.5,-0.83 -0.18,-0.04 -0.38,-0.05 -0.49,-0.05 -0.07,0 -0.13,-0.07 -0.13,-0.13 0,-0.09 0.07,-0.13 0.25,-0.13 0.52,0 1.51,0.04 1.6,0.04 0.07,0 1.1,-0.04 1.58,-0.04 0.18,0 0.25,0.04 0.25,0.13 0,0.05 -0.07,0.13 -0.13,0.13 -0.11,0 -0.22,0 -0.4,0.04 -0.43,0.09 -0.52,0.31 -0.56,0.85 -0.02,0.49 -0.02,0.92 -0.02,3.29 v 2.69 z"
   id="path305"
   style="fill:#000000;stroke:#ffffff;stroke-width:0.6;stroke-miterlimit:4;stroke-dasharray:none;stroke-opacity:1;paint-order:stroke markers fill" />
		<path
   class="st0"
   d="m 287.04,318.34 c 0.92,-2.05 2.99,-7.27 3.33,-8.37 0.07,-0.23 0.14,-0.45 0.14,-0.58 0,-0.13 -0.05,-0.27 -0.22,-0.32 -0.18,-0.05 -0.36,-0.05 -0.54,-0.05 -0.09,0 -0.18,-0.05 -0.18,-0.13 0,-0.09 0.11,-0.13 0.36,-0.13 0.63,0 1.35,0.04 1.55,0.04 0.09,0 0.77,-0.04 1.24,-0.04 0.16,0 0.25,0.04 0.25,0.11 0,0.07 -0.05,0.14 -0.18,0.14 -0.11,0 -0.47,0 -0.76,0.18 -0.22,0.14 -0.47,0.36 -0.88,1.4 -0.18,0.43 -0.95,2.27 -1.76,4.14 -0.97,2.23 -1.67,3.89 -2.03,4.65 -0.43,0.92 -0.52,1.15 -0.68,1.15 -0.18,0 -0.29,-0.2 -0.59,-0.94 l -3.89,-9.38 c -0.36,-0.86 -0.58,-1.03 -1.1,-1.15 -0.25,-0.05 -0.52,-0.05 -0.61,-0.05 -0.09,0 -0.13,-0.09 -0.13,-0.14 0,-0.09 0.16,-0.11 0.41,-0.11 0.76,0 1.66,0.04 1.85,0.04 0.16,0 0.86,-0.04 1.48,-0.04 0.29,0 0.43,0.04 0.43,0.11 0,0.07 -0.05,0.14 -0.16,0.14 -0.18,0 -0.43,0.02 -0.58,0.07 -0.16,0.07 -0.18,0.16 -0.18,0.27 0,0.2 0.2,0.67 0.43,1.28 z"
   id="path307"
   style="fill:#000000;stroke:#ffffff;stroke-width:0.6;stroke-miterlimit:4;stroke-dasharray:none;stroke-opacity:1;paint-order:stroke markers fill" />
		<path
   class="st0"
   d="m 295.72,313.19 c 0,-2.38 0,-2.81 -0.04,-3.29 -0.04,-0.52 -0.13,-0.77 -0.65,-0.85 -0.13,-0.02 -0.4,-0.04 -0.54,-0.04 -0.05,0 -0.13,-0.07 -0.13,-0.13 0,-0.09 0.07,-0.13 0.25,-0.13 0.72,0 1.75,0.04 1.84,0.04 0.11,0 3.42,0.02 3.78,0 0.31,-0.02 0.59,-0.07 0.72,-0.09 0.07,-0.02 0.14,-0.07 0.22,-0.07 0.05,0 0.07,0.07 0.07,0.14 0,0.11 -0.09,0.29 -0.13,0.72 -0.02,0.14 -0.05,0.83 -0.09,1.01 -0.02,0.07 -0.07,0.16 -0.14,0.16 -0.09,0 -0.13,-0.07 -0.13,-0.2 0,-0.11 -0.02,-0.36 -0.09,-0.54 -0.11,-0.25 -0.27,-0.36 -1.13,-0.47 -0.27,-0.04 -2.11,-0.05 -2.29,-0.05 -0.07,0 -0.09,0.05 -0.09,0.16 v 4.16 c 0,0.11 0,0.16 0.09,0.16 0.2,0 2.29,0 2.65,-0.04 0.38,-0.04 0.61,-0.05 0.77,-0.22 0.11,-0.11 0.18,-0.2 0.23,-0.2 0.05,0 0.09,0.04 0.09,0.13 0,0.09 -0.09,0.34 -0.13,0.85 -0.04,0.31 -0.07,0.88 -0.07,0.99 0,0.13 -0.04,0.29 -0.14,0.29 -0.07,0 -0.11,-0.05 -0.11,-0.14 0,-0.14 0,-0.31 -0.07,-0.5 -0.05,-0.22 -0.2,-0.4 -0.81,-0.47 -0.43,-0.05 -2.12,-0.07 -2.4,-0.07 -0.09,0 -0.11,0.05 -0.11,0.11 v 1.28 c 0,0.52 -0.02,2.3 0,2.61 0.04,1.03 0.32,1.22 1.89,1.22 0.41,0 1.17,0 1.58,-0.16 0.41,-0.18 0.63,-0.45 0.72,-1.06 0.04,-0.18 0.07,-0.23 0.16,-0.23 0.09,0 0.11,0.13 0.11,0.23 0,0.11 -0.13,1.15 -0.22,1.48 -0.11,0.4 -0.27,0.4 -0.88,0.4 -1.19,0 -2.11,-0.04 -2.75,-0.05 -0.67,-0.04 -1.08,-0.04 -1.31,-0.04 -0.04,0 -0.34,0 -0.68,0.02 -0.31,0.02 -0.67,0.04 -0.92,0.04 -0.16,0 -0.25,-0.04 -0.25,-0.13 0,-0.05 0.04,-0.13 0.13,-0.13 0.14,0 0.34,-0.05 0.49,-0.07 0.31,-0.05 0.34,-0.36 0.41,-0.81 0.09,-0.63 0.09,-1.84 0.09,-3.31 v -2.71 z"
   id="path309"
   style="fill:#000000;stroke:#ffffff;stroke-width:0.6;stroke-miterlimit:4;stroke-dasharray:none;stroke-opacity:1;paint-order:stroke markers fill" />
		<path
   class="st0"
   d="m 305.02,313.19 c 0,-2.38 0,-2.81 -0.04,-3.29 -0.04,-0.52 -0.13,-0.77 -0.65,-0.85 -0.13,-0.02 -0.4,-0.04 -0.54,-0.04 -0.05,0 -0.13,-0.07 -0.13,-0.13 0,-0.09 0.07,-0.13 0.25,-0.13 0.72,0 1.78,0.04 1.87,0.04 0.16,0 1.49,-0.04 1.98,-0.04 1.01,0 2.12,0.09 2.95,0.67 0.4,0.29 1.1,1.03 1.1,2.09 0,1.13 -0.47,2.23 -1.94,3.49 1.3,1.62 2.39,3.01 3.31,3.96 0.85,0.86 1.37,1.01 1.76,1.06 0.31,0.05 0.47,0.05 0.56,0.05 0.09,0 0.14,0.07 0.14,0.13 0,0.09 -0.09,0.13 -0.38,0.13 h -0.99 c -0.9,0 -1.3,-0.09 -1.69,-0.31 -0.68,-0.36 -1.26,-1.1 -2.16,-2.25 -0.67,-0.83 -1.37,-1.82 -1.71,-2.23 -0.07,-0.07 -0.11,-0.09 -0.22,-0.09 l -2.02,-0.04 c -0.07,0 -0.11,0.04 -0.11,0.13 v 0.36 c 0,1.48 0,2.66 0.07,3.29 0.05,0.45 0.14,0.74 0.63,0.81 0.22,0.04 0.56,0.07 0.7,0.07 0.11,0 0.13,0.07 0.13,0.13 0,0.07 -0.07,0.13 -0.25,0.13 -0.86,0 -1.87,-0.05 -1.94,-0.05 -0.02,0 -1.08,0.05 -1.57,0.05 -0.16,0 -0.25,-0.04 -0.25,-0.13 0,-0.05 0.04,-0.13 0.13,-0.13 0.14,0 0.34,-0.04 0.49,-0.07 0.31,-0.07 0.34,-0.36 0.41,-0.81 0.09,-0.63 0.09,-1.84 0.09,-3.31 v -2.69 z m 1.37,1.29 c 0,0.09 0.04,0.14 0.11,0.2 0.23,0.13 1.04,0.23 1.75,0.23 0.38,0 0.81,-0.02 1.19,-0.27 0.54,-0.36 0.95,-1.17 0.95,-2.34 0,-1.91 -1.04,-3.01 -2.74,-3.01 -0.47,0 -0.97,0.05 -1.13,0.09 -0.07,0.04 -0.13,0.09 -0.13,0.18 z"
   id="path311"
   style="fill:#000000;stroke:#ffffff;stroke-width:0.6;stroke-miterlimit:4;stroke-dasharray:none;stroke-opacity:1;paint-order:stroke markers fill" />
		<path
   class="st0"
   d="m 316.24,320.12 c -0.22,-0.11 -0.23,-0.16 -0.23,-0.58 0,-0.76 0.07,-1.37 0.09,-1.62 0,-0.16 0.04,-0.25 0.13,-0.25 0.09,0 0.14,0.05 0.14,0.18 0,0.13 0,0.34 0.05,0.56 0.25,1.12 1.44,1.51 2.5,1.51 1.57,0 2.38,-0.88 2.38,-2.03 0,-1.1 -0.59,-1.62 -2,-2.67 l -0.72,-0.54 c -1.71,-1.28 -2.27,-2.21 -2.27,-3.28 0,-1.8 1.42,-2.88 3.51,-2.88 0.63,0 1.26,0.09 1.64,0.18 0.31,0.07 0.43,0.07 0.56,0.07 0.13,0 0.16,0.02 0.16,0.11 0,0.07 -0.07,0.58 -0.07,1.62 0,0.23 -0.02,0.34 -0.13,0.34 -0.11,0 -0.13,-0.07 -0.14,-0.2 -0.02,-0.18 -0.14,-0.59 -0.23,-0.76 -0.11,-0.18 -0.63,-0.76 -2.05,-0.76 -1.15,0 -2.11,0.58 -2.11,1.66 0,0.97 0.49,1.53 2.05,2.59 l 0.45,0.31 c 1.93,1.31 2.59,2.38 2.59,3.69 0,0.9 -0.34,1.87 -1.48,2.61 -0.67,0.43 -1.66,0.54 -2.52,0.54 -0.74,0.01 -1.66,-0.1 -2.3,-0.4 z"
   id="path313"
   style="fill:#000000;stroke:#ffffff;stroke-width:0.6;stroke-miterlimit:4;stroke-dasharray:none;stroke-opacity:1;paint-order:stroke markers fill" />
		<path
   class="st0"
   d="m 327.6,315.89 c 0,1.48 0,2.68 0.07,3.31 0.05,0.45 0.11,0.74 0.58,0.81 0.23,0.04 0.58,0.07 0.72,0.07 0.09,0 0.13,0.07 0.13,0.13 0,0.07 -0.07,0.13 -0.25,0.13 -0.88,0 -1.91,-0.05 -1.98,-0.05 -0.09,0 -1.08,0.05 -1.57,0.05 -0.16,0 -0.25,-0.04 -0.25,-0.13 0,-0.05 0.04,-0.13 0.13,-0.13 0.14,0 0.34,-0.04 0.49,-0.07 0.31,-0.07 0.36,-0.36 0.41,-0.81 0.07,-0.63 0.09,-1.84 0.09,-3.31 v -2.7 c 0,-2.38 0,-2.81 -0.04,-3.29 -0.04,-0.52 -0.16,-0.76 -0.5,-0.83 -0.18,-0.04 -0.38,-0.05 -0.49,-0.05 -0.07,0 -0.13,-0.07 -0.13,-0.13 0,-0.09 0.07,-0.13 0.25,-0.13 0.52,0 1.51,0.04 1.6,0.04 0.07,0 1.1,-0.04 1.58,-0.04 0.18,0 0.25,0.04 0.25,0.13 0,0.05 -0.07,0.13 -0.13,0.13 -0.11,0 -0.22,0 -0.4,0.04 -0.43,0.09 -0.52,0.31 -0.56,0.85 -0.02,0.49 -0.02,0.92 -0.02,3.29 v 2.69 z"
   id="path315"
   style="fill:#000000;stroke:#ffffff;stroke-width:0.6;stroke-miterlimit:4;stroke-dasharray:none;stroke-opacity:1;paint-order:stroke markers fill" />
		<path
   class="st0"
   d="m 336.74,315.89 c 0,1.48 0,2.68 0.07,3.31 0.05,0.45 0.13,0.74 0.61,0.81 0.22,0.04 0.58,0.07 0.72,0.07 0.11,0 0.13,0.07 0.13,0.13 0,0.07 -0.07,0.13 -0.25,0.13 -0.86,0 -1.87,-0.05 -1.96,-0.05 -0.07,0 -1.17,0.05 -1.64,0.05 -0.18,0 -0.25,-0.04 -0.25,-0.13 0,-0.05 0.04,-0.11 0.13,-0.11 0.14,0 0.32,-0.04 0.47,-0.07 0.32,-0.07 0.41,-0.38 0.47,-0.83 0.07,-0.63 0.07,-1.84 0.07,-3.31 v -6.43 l -2.29,0.04 c -0.99,0.02 -1.37,0.13 -1.6,0.49 -0.18,0.27 -0.2,0.38 -0.25,0.49 -0.04,0.13 -0.09,0.14 -0.16,0.14 -0.04,0 -0.11,-0.04 -0.11,-0.13 0,-0.16 0.31,-1.53 0.34,-1.66 0.02,-0.09 0.11,-0.29 0.16,-0.29 0.11,0 0.27,0.13 0.7,0.18 0.45,0.05 1.06,0.07 1.24,0.07 h 5.98 c 0.52,0 0.88,-0.04 1.13,-0.07 0.23,-0.04 0.38,-0.07 0.45,-0.07 0.07,0 0.07,0.09 0.07,0.18 0,0.47 -0.05,1.57 -0.05,1.75 0,0.13 -0.07,0.2 -0.14,0.2 -0.07,0 -0.11,-0.05 -0.13,-0.27 l -0.02,-0.16 c -0.05,-0.47 -0.4,-0.81 -1.91,-0.85 l -1.98,-0.04 z"
   id="path317"
   style="fill:#000000;stroke:#ffffff;stroke-width:0.6;stroke-miterlimit:4;stroke-dasharray:none;stroke-opacity:1;paint-order:stroke markers fill" />
		<path
   class="st0"
   d="m 347.4,316.36 c 0,-0.83 -0.11,-1.13 -0.34,-1.57 -0.13,-0.23 -2.27,-3.64 -2.81,-4.45 -0.38,-0.58 -0.76,-0.92 -1.04,-1.12 -0.23,-0.14 -0.54,-0.22 -0.67,-0.22 -0.09,0 -0.16,-0.07 -0.16,-0.14 0,-0.07 0.05,-0.11 0.2,-0.11 0.31,0 1.5,0.04 1.57,0.04 0.11,0 0.76,-0.04 1.37,-0.04 0.18,0 0.22,0.04 0.22,0.11 0,0.05 -0.11,0.11 -0.25,0.16 -0.13,0.05 -0.2,0.13 -0.2,0.25 0,0.22 0.11,0.4 0.22,0.59 l 2.88,4.77 c 0.32,-0.65 2.3,-3.92 2.59,-4.43 0.2,-0.34 0.27,-0.59 0.27,-0.79 0,-0.22 -0.07,-0.34 -0.25,-0.4 -0.14,-0.04 -0.23,-0.11 -0.23,-0.18 0,-0.05 0.09,-0.09 0.25,-0.09 0.41,0 0.97,0.04 1.1,0.04 0.11,0 1.24,-0.04 1.55,-0.04 0.11,0 0.2,0.04 0.2,0.09 0,0.07 -0.07,0.16 -0.2,0.16 -0.18,0 -0.49,0.05 -0.74,0.2 -0.31,0.18 -0.45,0.34 -0.79,0.76 -0.52,0.61 -2.75,4.21 -3.08,4.86 -0.27,0.54 -0.2,1.03 -0.2,1.53 v 1.31 c 0,0.25 0,0.9 0.05,1.53 0.04,0.45 0.14,0.74 0.61,0.81 0.22,0.04 0.58,0.07 0.72,0.07 0.09,0 0.13,0.07 0.13,0.13 0,0.07 -0.09,0.13 -0.25,0.13 -0.88,0 -1.91,-0.05 -2,-0.05 -0.07,0 -1.08,0.05 -1.55,0.05 -0.18,0 -0.25,-0.04 -0.25,-0.13 0,-0.05 0.04,-0.13 0.13,-0.13 0.14,0 0.32,-0.04 0.47,-0.07 0.32,-0.07 0.43,-0.36 0.47,-0.81 0.04,-0.63 0.04,-1.28 0.04,-1.53 v -1.29 z"
   id="path319"
   style="fill:#000000;stroke:#ffffff;stroke-width:0.6;stroke-miterlimit:4;stroke-dasharray:none;stroke-opacity:1;paint-order:stroke markers fill" />
		<path
   class="st0"
   d="m 359.72,317.09 c 0,-3.33 2.2,-5.62 4.77,-5.62 2.45,0 3.82,1.44 3.82,3.71 0,2.63 -1.87,5.47 -5.02,5.42 -2.31,0.02 -3.57,-1.56 -3.57,-3.51 z m 1.44,0.29 c 0,1.53 0.67,2.7 2.32,2.68 2.41,0 3.38,-3.46 3.38,-5.37 0,-1.39 -0.72,-2.68 -2.27,-2.68 -2.49,0.01 -3.43,3.37 -3.43,5.37 z"
   id="path321"
   style="fill:#000000;stroke:#ffffff;stroke-width:0.6;stroke-miterlimit:4;stroke-dasharray:none;stroke-opacity:1;paint-order:stroke markers fill" />
		<path
   class="st0"
   d="m 375.73,312.11 -0.11,0.63 h -2.29 l -0.79,4.34 c -0.23,1.3 -0.54,2.41 -1.1,3.62 -0.88,1.93 -1.96,3.29 -2.07,3.31 -0.47,-0.27 -0.45,-0.34 -0.22,-0.65 1.06,-1.15 1.53,-2.65 1.78,-4.16 l 1.12,-6.46 h -1.8 l 0.11,-0.63 h 1.8 c 0.61,-3.6 2.39,-5.8 3.58,-5.8 0.34,0 0.65,0.27 0.63,0.79 -0.02,0.68 -0.36,1.06 -0.58,1.06 -0.34,0 -0.11,-0.58 -0.74,-0.58 -1.06,0 -1.19,1.98 -1.62,4.52 h 2.3 z"
   id="path323"
   style="fill:#000000;stroke:#ffffff;stroke-width:0.6;stroke-miterlimit:4;stroke-dasharray:none;stroke-opacity:1;paint-order:stroke markers fill" />
		<path
   class="st0"
   d="m 396.18,315.11 c 0,1.73 0,3.15 0.09,3.91 0.05,0.52 0.16,0.92 0.7,0.99 0.25,0.04 0.65,0.07 0.81,0.07 0.11,0 0.14,0.05 0.14,0.11 0,0.09 -0.09,0.14 -0.29,0.14 -0.99,0 -2.13,-0.05 -2.22,-0.05 -0.09,0 -1.22,0.05 -1.76,0.05 -0.2,0 -0.29,-0.04 -0.29,-0.14 0,-0.05 0.04,-0.11 0.14,-0.11 0.16,0 0.38,-0.04 0.54,-0.07 0.36,-0.07 0.45,-0.47 0.52,-0.99 0.09,-0.76 0.09,-2.18 0.09,-3.91 v -1.89 c 0,-0.07 -0.05,-0.11 -0.11,-0.11 h -7.63 c -0.05,0 -0.11,0.02 -0.11,0.11 v 1.89 c 0,1.73 0,3.15 0.09,3.91 0.05,0.52 0.16,0.92 0.7,0.99 0.25,0.04 0.65,0.07 0.81,0.07 0.11,0 0.14,0.05 0.14,0.11 0,0.09 -0.09,0.14 -0.29,0.14 -0.99,0 -2.12,-0.05 -2.21,-0.05 -0.09,0 -1.22,0.05 -1.76,0.05 -0.2,0 -0.29,-0.04 -0.29,-0.14 0,-0.05 0.04,-0.11 0.14,-0.11 0.16,0 0.38,-0.04 0.54,-0.07 0.36,-0.07 0.45,-0.47 0.52,-0.99 0.09,-0.76 0.09,-2.18 0.09,-3.91 v -3.17 c 0,-2.81 0,-3.31 -0.04,-3.89 -0.04,-0.61 -0.18,-0.9 -0.77,-1.03 -0.14,-0.04 -0.45,-0.05 -0.61,-0.05 -0.07,0 -0.14,-0.04 -0.14,-0.11 0,-0.11 0.09,-0.14 0.29,-0.14 0.81,0 1.94,0.05 2.03,0.05 0.09,0 1.22,-0.05 1.76,-0.05 0.2,0 0.29,0.04 0.29,0.14 0,0.07 -0.07,0.11 -0.14,0.11 -0.13,0 -0.23,0.02 -0.45,0.05 -0.49,0.09 -0.63,0.4 -0.67,1.03 -0.04,0.58 -0.04,1.08 -0.04,3.89 v 0.38 c 0,0.09 0.05,0.11 0.11,0.11 h 7.63 c 0.05,0 0.11,-0.02 0.11,-0.11 v -0.38 c 0,-2.81 0,-3.31 -0.04,-3.89 -0.04,-0.61 -0.18,-0.9 -0.77,-1.03 -0.14,-0.04 -0.45,-0.05 -0.61,-0.05 -0.07,0 -0.14,-0.04 -0.14,-0.11 0,-0.11 0.09,-0.14 0.29,-0.14 0.81,0 1.95,0.05 2.04,0.05 0.09,0 1.22,-0.05 1.77,-0.05 0.2,0 0.29,0.04 0.29,0.14 0,0.07 -0.07,0.11 -0.14,0.11 -0.13,0 -0.23,0.02 -0.45,0.05 -0.49,0.09 -0.63,0.4 -0.67,1.03 -0.04,0.58 -0.04,1.08 -0.04,3.89 v 3.17 z"
   id="path325"
   style="fill:#000000;stroke:#ffffff;stroke-width:0.6;stroke-miterlimit:4;stroke-dasharray:none;stroke-opacity:1;paint-order:stroke markers fill" />
		<path
   class="st0"
   d="m 404.78,309.06 c 0.2,-0.5 0.27,-0.59 0.38,-0.59 0.16,0 0.22,0.22 0.38,0.56 0.29,0.65 2.83,6.97 3.8,9.29 0.58,1.37 1.01,1.57 1.35,1.67 0.23,0.07 0.47,0.09 0.63,0.09 0.09,0 0.2,0.04 0.2,0.13 0,0.09 -0.18,0.13 -0.36,0.13 -0.23,0 -1.4,0 -2.5,-0.04 -0.31,-0.02 -0.56,-0.02 -0.56,-0.11 0,-0.07 0.04,-0.07 0.11,-0.11 0.09,-0.04 0.25,-0.16 0.14,-0.41 l -1.42,-3.51 c -0.04,-0.07 -0.05,-0.09 -0.14,-0.09 h -3.66 c -0.07,0 -0.13,0.04 -0.16,0.13 l -0.9,2.45 c -0.14,0.38 -0.23,0.76 -0.23,1.03 0,0.31 0.27,0.41 0.54,0.41 h 0.14 c 0.13,0 0.16,0.05 0.16,0.13 0,0.09 -0.09,0.13 -0.23,0.13 -0.38,0 -1.24,-0.05 -1.42,-0.05 -0.16,0 -0.95,0.05 -1.6,0.05 -0.2,0 -0.31,-0.04 -0.31,-0.13 0,-0.07 0.07,-0.13 0.14,-0.13 0.11,0 0.34,-0.02 0.47,-0.04 0.72,-0.09 1.03,-0.63 1.33,-1.4 z m 1.76,6.38 c 0.07,0 0.07,-0.04 0.05,-0.11 l -1.57,-4.2 c -0.09,-0.23 -0.18,-0.23 -0.27,0 l -1.48,4.2 c -0.02,0.07 0,0.11 0.05,0.11 z"
   id="path327"
   style="fill:#000000;stroke:#ffffff;stroke-width:0.6;stroke-miterlimit:4;stroke-dasharray:none;stroke-opacity:1;paint-order:stroke markers fill" />
		<path
   class="st0"
   d="m 423.16,318.07 h 0.07 c 0.4,-1.26 1.82,-5.69 2.38,-7.65 0.16,-0.58 0.18,-0.76 0.18,-0.95 0,-0.27 -0.13,-0.45 -0.85,-0.45 -0.09,0 -0.14,-0.09 -0.14,-0.14 0,-0.07 0.07,-0.11 0.27,-0.11 0.81,0 1.48,0.04 1.62,0.04 0.11,0 0.79,-0.04 1.28,-0.04 0.14,0 0.22,0.04 0.22,0.09 0,0.07 -0.04,0.16 -0.14,0.16 -0.05,0 -0.36,0.02 -0.54,0.07 -0.47,0.16 -0.72,0.77 -1.03,1.62 -0.7,1.95 -2.27,6.81 -2.9,8.52 -0.41,1.13 -0.5,1.31 -0.68,1.31 -0.16,0 -0.31,-0.2 -0.52,-0.79 l -3.1,-8.39 c -0.54,1.33 -2.68,6.95 -3.26,8.37 -0.27,0.65 -0.38,0.81 -0.56,0.81 -0.16,0 -0.29,-0.16 -0.61,-1.21 l -2.81,-9.08 c -0.25,-0.81 -0.41,-1.01 -0.83,-1.15 -0.22,-0.07 -0.61,-0.09 -0.72,-0.09 -0.07,0 -0.14,-0.05 -0.14,-0.14 0,-0.07 0.11,-0.11 0.25,-0.11 0.83,0 1.71,0.04 1.87,0.04 0.14,0 0.86,-0.04 1.66,-0.04 0.22,0 0.29,0.04 0.29,0.11 0,0.09 -0.09,0.14 -0.16,0.14 -0.13,0 -0.38,0 -0.56,0.09 -0.11,0.04 -0.22,0.13 -0.22,0.32 0,0.19 0.13,0.74 0.31,1.42 0.25,0.97 1.87,6.59 2.07,7.22 h 0.04 l 3.31,-8.57 c 0.23,-0.61 0.34,-0.7 0.43,-0.7 0.11,0 0.23,0.2 0.43,0.72 z"
   id="path329"
   style="fill:#000000;stroke:#ffffff;stroke-width:0.6;stroke-miterlimit:4;stroke-dasharray:none;stroke-opacity:1;paint-order:stroke markers fill" />
		<path
   class="st0"
   d="m 432.55,309.06 c 0.2,-0.5 0.27,-0.59 0.38,-0.59 0.16,0 0.22,0.22 0.38,0.56 0.29,0.65 2.83,6.97 3.8,9.29 0.58,1.37 1.01,1.57 1.35,1.67 0.23,0.07 0.47,0.09 0.63,0.09 0.09,0 0.2,0.04 0.2,0.13 0,0.09 -0.18,0.13 -0.36,0.13 -0.23,0 -1.4,0 -2.5,-0.04 -0.31,-0.02 -0.56,-0.02 -0.56,-0.11 0,-0.07 0.04,-0.07 0.11,-0.11 0.09,-0.04 0.25,-0.16 0.14,-0.41 l -1.42,-3.51 c -0.04,-0.07 -0.05,-0.09 -0.14,-0.09 h -3.66 c -0.07,0 -0.13,0.04 -0.16,0.13 l -0.9,2.45 c -0.14,0.38 -0.23,0.76 -0.23,1.03 0,0.31 0.27,0.41 0.54,0.41 h 0.14 c 0.13,0 0.16,0.05 0.16,0.13 0,0.09 -0.09,0.13 -0.23,0.13 -0.38,0 -1.24,-0.05 -1.42,-0.05 -0.16,0 -0.95,0.05 -1.6,0.05 -0.2,0 -0.31,-0.04 -0.31,-0.13 0,-0.07 0.07,-0.13 0.14,-0.13 0.11,0 0.34,-0.02 0.47,-0.04 0.72,-0.09 1.03,-0.63 1.33,-1.4 z m 1.77,6.38 c 0.07,0 0.07,-0.04 0.05,-0.11 l -1.57,-4.2 c -0.09,-0.23 -0.18,-0.23 -0.27,0 l -1.48,4.2 c -0.02,0.07 0,0.11 0.05,0.11 z"
   id="path331"
   style="fill:#000000;stroke:#ffffff;stroke-width:0.6;stroke-miterlimit:4;stroke-dasharray:none;stroke-opacity:1;paint-order:stroke markers fill" />
		<path
   class="st0"
   d="m 443.33,315.89 c 0,1.48 0,2.68 0.07,3.31 0.05,0.45 0.11,0.74 0.58,0.81 0.23,0.04 0.58,0.07 0.72,0.07 0.09,0 0.13,0.07 0.13,0.13 0,0.07 -0.07,0.13 -0.25,0.13 -0.88,0 -1.91,-0.05 -1.98,-0.05 -0.09,0 -1.08,0.05 -1.57,0.05 -0.16,0 -0.25,-0.04 -0.25,-0.13 0,-0.05 0.04,-0.13 0.13,-0.13 0.14,0 0.34,-0.04 0.49,-0.07 0.31,-0.07 0.36,-0.36 0.41,-0.81 0.07,-0.63 0.09,-1.84 0.09,-3.31 v -2.7 c 0,-2.38 0,-2.81 -0.04,-3.29 -0.04,-0.52 -0.16,-0.76 -0.5,-0.83 -0.18,-0.04 -0.38,-0.05 -0.49,-0.05 -0.07,0 -0.13,-0.07 -0.13,-0.13 0,-0.09 0.07,-0.13 0.25,-0.13 0.52,0 1.51,0.04 1.6,0.04 0.07,0 1.1,-0.04 1.58,-0.04 0.18,0 0.25,0.04 0.25,0.13 0,0.05 -0.07,0.13 -0.13,0.13 -0.11,0 -0.22,0 -0.4,0.04 -0.43,0.09 -0.52,0.31 -0.56,0.85 -0.02,0.49 -0.02,0.92 -0.02,3.29 v 2.69 z"
   id="path333"
   style="fill:#000000;stroke:#ffffff;stroke-width:0.6;stroke-miterlimit:4;stroke-dasharray:none;stroke-opacity:1;paint-order:stroke markers fill" />
		<path
   class="st0"
   d="m 448.91,309.58 c 0.14,0.16 0.16,0.22 0.16,0.31 0,0.05 -0.09,0.11 -0.16,0.11 -0.29,0 -0.97,-0.22 -1.26,-0.32 -0.22,-0.11 -0.31,-0.2 -0.31,-0.47 0,-1.28 0.92,-2.79 1.55,-3.55 0.07,-0.11 0.14,-0.14 0.23,-0.14 0.04,0 0.09,0.04 0.09,0.09 0,0.05 -0.02,0.11 -0.07,0.23 -0.27,0.58 -0.59,1.55 -0.59,2.58 0,0.55 0.24,1.02 0.36,1.16 z"
   id="path335"
   style="fill:#000000;stroke:#ffffff;stroke-width:0.6;stroke-miterlimit:4;stroke-dasharray:none;stroke-opacity:1;paint-order:stroke markers fill" />
		<path
   class="st0"
   d="m 454.67,315.89 c 0,1.48 0,2.68 0.07,3.31 0.05,0.45 0.11,0.74 0.58,0.81 0.23,0.04 0.58,0.07 0.72,0.07 0.09,0 0.13,0.07 0.13,0.13 0,0.07 -0.07,0.13 -0.25,0.13 -0.88,0 -1.91,-0.05 -1.98,-0.05 -0.09,0 -1.08,0.05 -1.57,0.05 -0.16,0 -0.25,-0.04 -0.25,-0.13 0,-0.05 0.04,-0.13 0.13,-0.13 0.14,0 0.34,-0.04 0.49,-0.07 0.31,-0.07 0.36,-0.36 0.41,-0.81 0.07,-0.63 0.09,-1.84 0.09,-3.31 v -2.7 c 0,-2.38 0,-2.81 -0.04,-3.29 -0.04,-0.52 -0.16,-0.76 -0.5,-0.83 -0.18,-0.04 -0.38,-0.05 -0.49,-0.05 -0.07,0 -0.13,-0.07 -0.13,-0.13 0,-0.09 0.07,-0.13 0.25,-0.13 0.52,0 1.51,0.04 1.6,0.04 0.07,0 1.1,-0.04 1.58,-0.04 0.18,0 0.25,0.04 0.25,0.13 0,0.05 -0.07,0.13 -0.13,0.13 -0.11,0 -0.22,0 -0.4,0.04 -0.43,0.09 -0.52,0.31 -0.56,0.85 -0.02,0.49 -0.02,0.92 -0.02,3.29 v 2.69 z"
   id="path337"
   style="fill:#000000;stroke:#ffffff;stroke-width:0.6;stroke-miterlimit:4;stroke-dasharray:none;stroke-opacity:1;paint-order:stroke markers fill" />
		<path
   class="st0"
   d="m 472.32,319.29 1.57,0.09 -0.04,0.54 c -0.97,0.14 -1.94,0.4 -2.9,0.68 l -0.14,-0.13 0.32,-1.71 c -0.95,0.81 -2.52,1.84 -3.71,1.84 -1.1,0 -1.58,-0.85 -1.57,-1.73 0.05,-3.24 2.75,-7.4 6.25,-7.4 0.63,0 1.26,0.14 1.87,0.29 z m 0.23,-6.84 c -0.47,-0.16 -0.95,-0.32 -1.44,-0.32 -1.4,0 -3.82,3.38 -3.82,6.3 0,0.59 0.25,1.15 1.08,1.15 1.04,0 2.2,-0.79 2.93,-1.48 z"
   id="path339"
   style="fill:#000000;stroke:#ffffff;stroke-width:0.6;stroke-miterlimit:4;stroke-dasharray:none;stroke-opacity:1;paint-order:stroke markers fill" />
		<path
   class="st0"
   d="m 478.16,312.79 h -1.87 l 0.07,-0.63 h 1.94 l 0.49,-2.21 1.3,-0.16 -0.52,2.38 h 2.29 l -0.11,0.63 h -2.32 l -1.17,5.33 c -0.16,0.7 -0.23,1.44 0.59,1.44 1.08,0 1.62,-0.49 2.52,-0.97 l 0.14,0.43 c -0.83,0.59 -2.38,1.58 -3.38,1.58 -0.77,0 -1.55,-0.63 -1.22,-2.09 z"
   id="path341"
   style="fill:#000000;stroke:#ffffff;stroke-width:0.6;stroke-miterlimit:4;stroke-dasharray:none;stroke-opacity:1;paint-order:stroke markers fill" />
		<path
   class="st0"
   d="m 505.67,318.03 c 0.07,0.65 0.2,1.66 0.97,1.91 0.52,0.16 0.99,0.16 1.17,0.16 0.09,0 0.14,0.02 0.14,0.09 0,0.11 -0.16,0.16 -0.38,0.16 -0.4,0 -2.34,-0.02 -3.01,-0.07 -0.41,-0.04 -0.5,-0.09 -0.5,-0.18 0,-0.07 0.04,-0.11 0.13,-0.13 0.09,-0.02 0.11,-0.32 0.07,-0.65 l -0.86,-9.34 h -0.05 l -4.41,9.36 c -0.38,0.79 -0.43,0.95 -0.59,0.95 -0.13,0 -0.22,-0.18 -0.56,-0.83 -0.47,-0.88 -2.02,-4 -2.11,-4.18 -0.16,-0.32 -2.18,-4.65 -2.38,-5.13 h -0.07 l -0.72,8.35 c -0.02,0.29 -0.02,0.61 -0.02,0.92 0,0.27 0.2,0.5 0.47,0.56 0.31,0.07 0.58,0.09 0.68,0.09 0.07,0 0.14,0.04 0.14,0.09 0,0.13 -0.11,0.16 -0.32,0.16 -0.67,0 -1.53,-0.05 -1.67,-0.05 -0.16,0 -1.03,0.05 -1.51,0.05 -0.18,0 -0.31,-0.04 -0.31,-0.16 0,-0.05 0.09,-0.09 0.18,-0.09 0.14,0 0.27,0 0.54,-0.05 0.59,-0.11 0.65,-0.81 0.72,-1.49 l 1.3,-11.74 c 0.02,-0.2 0.09,-0.32 0.2,-0.32 0.11,0 0.18,0.07 0.27,0.27 l 5.51,11.33 5.29,-11.31 c 0.07,-0.16 0.14,-0.29 0.27,-0.29 0.13,0 0.18,0.14 0.22,0.49 z"
   id="path343"
   style="fill:#000000;stroke:#ffffff;stroke-width:0.6;stroke-miterlimit:4;stroke-dasharray:none;stroke-opacity:1;paint-order:stroke markers fill" />
		<path
   class="st0"
   d="m 513.89,309.06 c 0.2,-0.5 0.27,-0.59 0.38,-0.59 0.16,0 0.22,0.22 0.38,0.56 0.29,0.65 2.83,6.97 3.8,9.29 0.58,1.37 1.01,1.57 1.35,1.67 0.23,0.07 0.47,0.09 0.63,0.09 0.09,0 0.2,0.04 0.2,0.13 0,0.09 -0.18,0.13 -0.36,0.13 -0.23,0 -1.4,0 -2.5,-0.04 -0.31,-0.02 -0.56,-0.02 -0.56,-0.11 0,-0.07 0.04,-0.07 0.11,-0.11 0.09,-0.04 0.25,-0.16 0.14,-0.41 l -1.42,-3.51 c -0.04,-0.07 -0.05,-0.09 -0.14,-0.09 h -3.66 c -0.07,0 -0.13,0.04 -0.16,0.13 l -0.9,2.45 c -0.14,0.38 -0.23,0.76 -0.23,1.03 0,0.31 0.27,0.41 0.54,0.41 h 0.14 c 0.13,0 0.16,0.05 0.16,0.13 0,0.09 -0.09,0.13 -0.23,0.13 -0.38,0 -1.24,-0.05 -1.42,-0.05 -0.16,0 -0.95,0.05 -1.6,0.05 -0.2,0 -0.31,-0.04 -0.31,-0.13 0,-0.07 0.07,-0.13 0.14,-0.13 0.11,0 0.34,-0.02 0.47,-0.04 0.72,-0.09 1.03,-0.63 1.33,-1.4 z m 2.63,-2.91 c 0.14,0 0.18,0.09 0.14,0.18 l -0.14,0.4 c -0.02,0.07 -0.07,0.11 -0.16,0.11 h -4.23 c -0.13,0 -0.2,-0.02 -0.18,-0.13 l 0.14,-0.45 c 0.02,-0.09 0.09,-0.11 0.2,-0.11 z m -0.86,9.29 c 0.07,0 0.07,-0.04 0.05,-0.11 l -1.57,-4.2 c -0.09,-0.23 -0.18,-0.23 -0.27,0 l -1.48,4.2 c -0.02,0.07 0,0.11 0.05,0.11 z"
   id="path345"
   style="fill:#000000;stroke:#ffffff;stroke-width:0.6;stroke-miterlimit:4;stroke-dasharray:none;stroke-opacity:1;paint-order:stroke markers fill" />
		<path
   class="st0"
   d="m 524.1,318.25 c 0.04,1.26 0.18,1.64 0.61,1.75 0.29,0.07 0.65,0.09 0.79,0.09 0.07,0 0.13,0.05 0.13,0.13 0,0.09 -0.11,0.13 -0.29,0.13 -0.9,0 -1.53,-0.05 -1.67,-0.05 -0.14,0 -0.81,0.05 -1.53,0.05 -0.16,0 -0.25,-0.02 -0.25,-0.13 0,-0.07 0.05,-0.13 0.13,-0.13 0.13,0 0.41,-0.02 0.65,-0.09 0.4,-0.11 0.45,-0.52 0.45,-1.91 v -8.77 c 0,-0.61 0.09,-0.77 0.22,-0.77 0.18,0 0.45,0.31 0.61,0.47 0.25,0.25 2.56,2.7 5.01,5.22 1.57,1.62 3.26,3.44 3.75,3.94 l -0.16,-7.67 c -0.02,-0.99 -0.11,-1.33 -0.59,-1.42 -0.29,-0.05 -0.65,-0.07 -0.77,-0.07 -0.11,0 -0.13,-0.09 -0.13,-0.14 0,-0.09 0.13,-0.11 0.31,-0.11 0.72,0 1.48,0.04 1.66,0.04 0.18,0 0.7,-0.04 1.35,-0.04 0.16,0 0.29,0.02 0.29,0.11 0,0.05 -0.07,0.14 -0.18,0.14 -0.07,0 -0.2,0 -0.38,0.04 -0.52,0.11 -0.56,0.41 -0.56,1.33 l -0.04,8.97 c 0,1.01 -0.02,1.1 -0.13,1.1 -0.16,0 -0.32,-0.13 -1.21,-0.94 -0.16,-0.14 -2.45,-2.39 -4.12,-4.14 -1.84,-1.93 -3.62,-3.8 -4.1,-4.34 z"
   id="path347"
   style="fill:#000000;stroke:#ffffff;stroke-width:0.6;stroke-miterlimit:4;stroke-dasharray:none;stroke-opacity:1;paint-order:stroke markers fill" />
		<path
   class="st0"
   d="m 542.73,308.54 c 3.56,0 6.27,2.18 6.27,5.74 0,3.42 -2.54,6.25 -6.36,6.25 -4.34,0 -6.19,-3.26 -6.19,-6.01 0,-2.47 1.9,-5.98 6.28,-5.98 z m 0.36,11.36 c 1.42,0 4.29,-0.76 4.29,-5.19 0,-3.67 -2.23,-5.6 -4.74,-5.6 -2.65,0 -4.56,1.66 -4.56,4.99 0,3.57 2.15,5.8 5.01,5.8 z"
   id="path349"
   style="fill:#000000;stroke:#ffffff;stroke-width:0.6;stroke-miterlimit:4;stroke-dasharray:none;stroke-opacity:1;paint-order:stroke markers fill" />
		<path
   class="st0"
   d="m 555.2,309.06 c 0.2,-0.5 0.27,-0.59 0.38,-0.59 0.16,0 0.22,0.22 0.38,0.56 0.29,0.65 2.83,6.97 3.8,9.29 0.58,1.37 1.01,1.57 1.35,1.67 0.23,0.07 0.47,0.09 0.63,0.09 0.09,0 0.2,0.04 0.2,0.13 0,0.09 -0.18,0.13 -0.36,0.13 -0.23,0 -1.4,0 -2.5,-0.04 -0.31,-0.02 -0.56,-0.02 -0.56,-0.11 0,-0.07 0.04,-0.07 0.11,-0.11 0.09,-0.04 0.25,-0.16 0.14,-0.41 l -1.42,-3.51 c -0.04,-0.07 -0.05,-0.09 -0.14,-0.09 h -3.66 c -0.07,0 -0.13,0.04 -0.16,0.13 l -0.9,2.45 c -0.14,0.38 -0.23,0.76 -0.23,1.03 0,0.31 0.27,0.41 0.54,0.41 h 0.14 c 0.13,0 0.16,0.05 0.16,0.13 0,0.09 -0.09,0.13 -0.23,0.13 -0.38,0 -1.24,-0.05 -1.42,-0.05 -0.16,0 -0.95,0.05 -1.6,0.05 -0.2,0 -0.31,-0.04 -0.31,-0.13 0,-0.07 0.07,-0.13 0.14,-0.13 0.11,0 0.34,-0.02 0.47,-0.04 0.72,-0.09 1.03,-0.63 1.33,-1.4 z m 1.77,6.38 c 0.07,0 0.07,-0.04 0.05,-0.11 l -1.57,-4.2 c -0.09,-0.23 -0.18,-0.23 -0.27,0 l -1.48,4.2 c -0.02,0.07 0,0.11 0.05,0.11 z"
   id="path351"
   style="fill:#000000;stroke:#ffffff;stroke-width:0.6;stroke-miterlimit:4;stroke-dasharray:none;stroke-opacity:1;paint-order:stroke markers fill" />
	</g>
</g>


<g
   id="g367"
   transform="translate(-126.79,-264.94)"
   style="stroke:#ffffff;stroke-width:0.6;stroke-miterlimit:4;stroke-dasharray:none;stroke-opacity:1;paint-order:stroke markers fill">
	<path
   class="st0"
   d="m 560.95,308.76 v 0.2 h -0.91 v 2.18 h -0.25 v -2.18 h -0.91 v -0.2 z m 2.57,2.39 -0.14,-1.62 c -0.01,-0.14 0,-0.37 -0.01,-0.55 h -0.02 c -0.07,0.19 -0.14,0.43 -0.22,0.61 l -0.66,1.53 h -0.21 l -0.67,-1.58 c -0.07,-0.15 -0.14,-0.38 -0.2,-0.56 h -0.02 c -0.01,0.19 0.01,0.36 -0.01,0.55 l -0.13,1.62 h -0.25 l 0.22,-2.39 h 0.31 l 0.67,1.54 c 0.07,0.15 0.12,0.34 0.19,0.57 h 0.01 c 0.06,-0.23 0.12,-0.43 0.18,-0.58 l 0.66,-1.53 h 0.32 l 0.23,2.39 z"
   id="path365"
   style="stroke:#ffffff;stroke-width:0.6;stroke-miterlimit:4;stroke-dasharray:none;stroke-opacity:1;paint-order:stroke markers fill" />
</g>
<rect
   style="display:inline;fill:#000000;fill-rule:evenodd;stroke:#ffffff;stroke-width:0.605391;stroke-miterlimit:10;stroke-dasharray:none;stroke-opacity:1;paint-order:stroke markers fill"
   id="rect427"
   width="441.40668"
   height="1.008984"
   x="55.986645"
   y="34.28051" /></svg>
